<?xml version="1.0" encoding="UTF-8"?>
<svg width="38px" height="42px" viewBox="0 0 38 42" version="1.1" xmlns="http://www.w3.org/2000/svg" xmlns:xlink="http://www.w3.org/1999/xlink">
    <!-- Generator: Sketch 51.2 (57519) - http://www.bohemiancoding.com/sketch -->
    <title>ic_dailybot</title>
    <desc>Created with Sketch.</desc>
    <defs>
        <path d="M12.0351597,0.117678811 C11.4504183,0.199942811 10.9355536,0.505971243 10.5806115,0.976686486 C10.2282103,1.44930746 10.0778164,2.02833168 10.1597628,2.61100854 C10.2205874,3.04345038 10.4146542,3.44937081 10.7013077,3.76953341 C10.9644572,4.06508032 11.1015109,4.4525787 11.1143746,4.84563546 L11.1489954,5.90823859 C11.1661469,6.43167903 10.8293092,6.90191784 10.3314373,7.05644076 C10.01858,7.15268011 9.70921654,7.25876573 9.40287049,7.37231546 C6.07419589,8.61151622 4.07953211,10.5413852 2.99739524,11.9424142 C1.09992368,14.3925474 0.130383676,17.4695068 0.0997331892,21.121679 C0.100209622,21.1961613 0.0986215135,21.2709612 0.0990979459,21.3454435 C0.100050811,22.1266338 0.144517838,22.9302165 0.229322811,23.7622264 C0.279507027,24.2626392 0.345254703,24.773216 0.428471568,25.2952271 C0.447211243,25.4133824 0.491837081,25.5159742 0.554567351,25.6037965 C0.740058378,25.8637698 1.08753643,26.0003471 1.41024,26.0173399 C1.41024,26.0173399 4.60837211,26.2426924 15.5313797,24.7074683 C27.2225551,23.0644117 29.5145128,22.0170544 29.5145128,22.0170544 C29.90884,21.8409332 30.2634645,21.5412572 30.2086748,21.1080213 C30.0390649,19.7298611 29.7816325,18.4425406 29.4422538,17.2455836 C29.4384424,17.2319258 29.4346309,17.2204915 29.4308195,17.2068337 C29.2110253,16.4461299 28.9605806,15.7240172 28.6724978,15.0354135 C27.5959194,12.4634724 26.0363972,10.4246592 24.0123534,8.9505773 C21.4161143,7.05961697 18.53878,6.49313881 16.5847718,6.34877978 C16.2550805,6.32464054 15.9207838,6.31114162 15.5896632,6.30526562 C15.0728929,6.29748389 14.6226642,5.94587676 14.4914865,5.4426053 L14.2216669,4.43907978 C14.1185987,4.05078735 14.1427379,3.63438541 14.3182239,3.27753751 C14.5148317,2.885116 14.5905844,2.43552259 14.5278542,1.98910541 C14.3717431,0.89124627 13.4272952,0.0956041081 12.3475405,0.0956041081 C12.2444723,0.0956041081 12.1401336,0.102750595 12.0351597,0.117678811" id="path-1"/>
        <linearGradient x1="27.9373085%" y1="3.83040121%" x2="53.9721557%" y2="98.8210384%" id="linearGradient-3">
            <stop stop-color="#23CDAA" offset="0%"/>
            <stop stop-color="#2490EB" offset="100%"/>
        </linearGradient>
        <path d="M29.2335764,0.132607027 C28.6491526,0.460392541 25.9079192,1.65131481 15.1272062,3.16652876 C4.24580703,4.69571805 1.49504497,4.41367005 0.807870595,4.21023341 C0.540750811,4.130828 0.256797081,4.23119643 0.110691135,4.43907978 C0.0517723243,4.52182022 0.0158810811,4.62361795 0.0114343784,4.73510314 C0.00936983784,4.76353027 0.0115931892,4.7933867 0.0136577297,4.82324314 C0.0984627027,5.62698465 0.265372865,6.38514746 0.511847243,7.09185557 C0.673199027,7.55240692 0.86774227,7.99056595 1.09500054,8.40363286 C1.11088162,8.43158357 1.12517459,8.46191643 1.13914995,8.48812022 C1.52807762,9.17878843 2.01721492,9.80688519 2.59449222,10.3601821 C2.91179622,10.668275 3.25641568,10.9560402 3.63152681,11.2176016 C4.76734173,12.0188022 6.16185946,12.6245066 7.78204735,13.0170869 C9.05412195,13.3258151 10.4705556,13.5013011 11.9918043,13.5473562 C14.0023492,13.6072279 15.6509642,13.4137963 16.2631799,13.3278797 L16.3465556,13.3180334 C16.4647108,13.2994525 16.5496746,13.2875417 16.5887421,13.2780131 L16.5928711,13.2794424 C16.6303505,13.2742016 16.7116616,13.2648318 16.838075,13.2468862 L16.8950881,13.2368811 C17.5134974,13.1520761 19.1656063,12.8816213 21.0870583,12.2651177 C22.5289016,11.8045664 23.8397261,11.2417409 24.981417,10.5939516 C26.4264365,9.76845297 27.5957605,8.80240681 28.4590561,7.72026995 C29.2823314,6.68609395 29.8330872,5.54519708 30.1049714,4.31250757 C30.1894587,3.92389751 30.2483775,3.5270293 30.2755342,3.11825027 C30.2788692,3.11380357 30.2783928,3.1098333 30.2779163,3.10586303 C30.3374704,2.29783362 30.2856981,1.45708919 30.1286342,0.582835676 C30.102748,0.441494054 30.034777,0.316033514 29.9352026,0.223288 C29.8926413,0.178820973 29.8411866,0.141818054 29.7867145,0.113232108 C29.7082619,0.0719412973 29.6217101,0.0522487568 29.5343641,0.0522487568 C29.4305018,0.0522487568 29.3258455,0.0801994595 29.2335764,0.132607027" id="path-4"/>
        <linearGradient x1="-41.6462479%" y1="-29.2171869%" x2="113.657453%" y2="87.1205373%" id="linearGradient-6">
            <stop stop-color="#23CDAA" offset="0%"/>
            <stop stop-color="#2490EB" offset="100%"/>
        </linearGradient>
        <path d="M29.9352026,0.223288 L29.8524622,1.35481503 C29.7551111,2.65356984 28.8816517,3.76333978 27.6430862,4.16497232 C25.6147545,4.82467243 21.8893705,5.79135384 15.6298424,6.67116573 C9.37047308,7.55081881 5.52280476,7.64848746 3.39124605,7.57336995 C2.08995027,7.52874411 0.944447892,6.70261027 0.494854486,5.48071989 L0.110691135,4.43907978 C0.256797081,4.23119643 0.540750811,4.130828 0.807711784,4.21007459 C1.49504497,4.41367005 4.24580703,4.69587686 15.1272062,3.16652876 C25.9080781,1.65131481 28.6491526,0.460392541 29.2335764,0.132607027 C29.4033452,0.0362088649 29.6148812,0.0225511351 29.7867145,0.113232108" id="path-7"/>
        <path d="M30.2086748,3.95629492 C30.2634645,4.38968962 29.90884,4.68936562 29.5146716,4.86564562 C29.5146716,4.86564562 27.2225551,5.91284411 15.5312209,7.55590076 C4.60837211,9.09112486 1.41024,8.86577232 1.41024,8.86577232 C1.08769524,8.84862076 0.740058378,8.71220227 0.554567351,8.45222897 C0.491837081,8.36440659 0.447211243,8.26197362 0.428630378,8.14365957 C0.345095892,7.62164843 0.279507027,7.11123049 0.229322811,6.61065881 C0.144517838,5.77864897 0.100050811,4.97506627 0.0990979459,4.19371708 C0.181838378,4.12368151 0.283794919,4.07508541 0.396391784,4.05936314 C0.651124324,4.02347189 0.899345622,4.1557613 1.00892508,4.39016605 C1.42469178,5.27029557 2.82238573,7.27544086 6.79329124,6.77979232 C6.85078076,6.77375751 6.90811146,6.76565816 6.96925362,6.75708238 C7.02467859,6.74930065 7.07788022,6.74183654 7.13092303,6.73230789 C10.3520827,6.23332432 11.1599533,4.65553892 11.540464,3.5505333 C11.7739159,2.87526973 12.3486522,2.37946238 13.053931,2.28036443 L16.4539117,1.8025027 C17.1590317,1.70340476 17.8482706,2.02150281 18.2587965,2.60640303 C18.929137,3.56355578 20.1650027,4.85421124 23.3988672,4.44606746 C23.4525453,4.44050908 23.5057469,4.43304497 23.5611719,4.42526324 C23.6223141,4.41668746 23.6796448,4.40858811 23.7366578,4.39858303 C27.690253,3.78049135 28.4811308,1.46788832 28.6381947,0.507082919 C28.6788503,0.251715135 28.8810164,0.0560602162 29.135749,0.020168973 C29.2384996,0.005876 29.3391856,0.0198513514 29.4308195,0.0552661622 C29.4346309,0.0689238919 29.4382836,0.0805170811 29.4422538,0.094016" id="path-9"/>
    </defs>
    <g id="ic_dailybot" stroke="none" stroke-width="1" fill="none" fill-rule="evenodd">
        <g id="logo_dailybot-copy" transform="translate(2.000000, 1.000000)">
            <g id="Group-24" transform="translate(0.000000, 0.003017)" fill="#101770">
                <path d="M33.2123907,24.9868483 C33.1409259,24.5971266 32.9573406,24.2529835 32.6802157,23.9855461 C32.5765122,23.8816839 32.4561336,23.7943379 32.3270205,23.7179499 C32.6047806,23.330928 32.7281766,22.8740293 32.666558,22.3869565 C32.4923425,20.9714758 32.2222053,19.6112612 31.8640869,18.3483976 L31.853129,18.3107594 C31.613007,17.4797025 31.3500163,16.7269392 31.0470053,16.0027619 C29.8860983,13.2292899 28.1838052,11.0121322 25.9874517,9.41258971 C23.1666541,7.35805425 20.0561855,6.74059782 17.9435253,6.5846456 C17.6209806,6.56098279 17.2742966,6.54557814 16.9117315,6.53859046 L16.6477879,5.55745728 C16.616661,5.44009609 16.6219018,5.31781176 16.6628749,5.23443609 C16.9676329,4.62666711 17.0799121,3.93806344 16.983514,3.25184192 C16.7197292,1.39661403 14.9967907,0.100717816 13.1426745,0.361326357 L13.1390219,0.361802789 C12.2404703,0.488216195 11.4435576,0.958296195 10.8955015,1.68580852 C10.3490335,2.41808517 10.1193931,3.3117136 10.2451713,4.20693014 C10.3387108,4.87250625 10.6274289,5.49155079 11.0801985,5.99720441 C11.1441993,6.06914571 11.1845372,6.18539522 11.1888251,6.31419079 L11.222493,7.35043133 C10.9107474,7.4469883 10.5855028,7.55783825 10.2573997,7.67948733 C6.65525289,9.02048582 4.49717278,11.117265 3.3208611,12.6401018 C1.26553159,15.2938305 0.206422292,18.6253637 0.173707265,22.5408442 L0.173548454,22.5491024 L0.173548454,22.5572017 C0.173866076,22.5892815 0.173548454,22.6213613 0.173230832,22.6534411 C0.172913211,22.6958435 0.172595589,22.7384048 0.1727544,22.7808073 C0.173866076,23.5813726 0.2197624,24.4346631 0.309172886,25.3127281 C0.362374508,25.8434738 0.432568886,26.3826365 0.517373859,26.9133822 C0.563746616,27.2084527 0.67618467,27.4835131 0.850876562,27.7283993 C0.958867914,27.8794284 1.09115732,28.0131471 1.23901018,28.1309847 C1.16563959,28.2037201 1.09719213,28.2815374 1.03732045,28.36666 C0.8484944,28.6321917 0.738438508,28.9518778 0.721922184,29.2869686 C0.716046184,29.3921014 0.722398616,29.4784945 0.725892454,29.5262965 L0.727321751,29.5455126 L0.729227481,29.5644111 C0.823243481,30.4548633 1.01095786,31.3084714 1.28744748,32.1014138 C1.47103278,32.6253307 1.69447959,33.1276493 1.95207072,33.5961412 L1.95699386,33.6050346 L1.96255224,33.6159925 L1.98494456,33.6596655 L1.99336154,33.6755466 L2.00225494,33.6912688 C2.44756045,34.4816702 3.0094331,35.2045771 3.67215062,35.8398203 C4.0391624,36.1961918 4.43825397,36.5260418 4.85290899,36.8150775 C6.10862608,37.7007654 7.64226208,38.3685648 9.40585613,38.7959247 C10.7446313,39.1206928 12.2438053,39.310313 13.8612934,39.3593855 C15.9555316,39.4216393 17.6676709,39.2218553 18.3211774,39.1305391 L18.3905778,39.1225986 L18.414717,39.11974 L18.4385386,39.1159285 L18.5169912,39.1037001 C18.5690811,39.0957595 18.6140246,39.0887719 18.655633,39.0814666 L18.6651616,39.0801961 L18.7056584,39.0749553 C18.7536193,39.0689205 18.8217491,39.0601859 18.9103655,39.0477987 L18.9308521,39.0449401 L18.9511799,39.0412874 L18.9869123,39.0350938 L19.0121633,39.0316 C19.651218,38.9417131 21.3541463,38.6633177 23.3584975,38.0202927 C24.8760936,37.535761 26.2626708,36.9400616 27.4778912,36.2503462 C29.0578999,35.3476656 30.342997,34.2823627 31.3003086,33.0822294 C32.2363395,31.906553 32.8684065,30.5958873 33.1795169,29.185965 C33.2743269,28.7490764 33.3381689,28.313776 33.3702487,27.8880042 C33.3754894,27.8479839 33.3788245,27.8074871 33.3802538,27.7668315 C33.4415547,26.8830494 33.3851769,25.9479713 33.2123907,24.9868483" id="Fill-22"/>
                <path d="M2.11618582,33.5369683 L2.15302992,33.6070038 C2.58944203,34.3820006 3.14099198,35.0914085 3.79179868,35.7152173 C4.15484019,36.0676185 4.54472074,36.3896869 4.95175284,36.6734818 C6.19222409,37.5482117 7.70426182,38.2056885 9.44657522,38.6281252 C10.7735984,38.9500347 12.2607028,39.1380667 13.8665977,39.1866629 C15.9567068,39.2490755 17.6610644,39.0484974 18.2972605,38.9594046 L18.4902157,38.933042 C18.5418292,38.9252603 18.5855021,38.9184314 18.6258401,38.9114437 L18.6836472,38.903662 C18.7312905,38.8976272 18.7987851,38.8890514 18.8866074,38.876823 L18.9882464,38.8604654 C19.6223779,38.7713726 21.3126014,38.4953594 23.3056771,37.8559871 C24.8131093,37.3746315 26.1880933,36.7836965 27.3926733,36.1001747 C28.9523542,35.2090873 30.2218879,34.1574421 31.1652241,32.9744604 C32.0847387,31.819747 32.7055301,30.5325853 33.0107645,29.1487079 C33.1036688,28.7211892 33.1667167,28.2924 33.1980025,27.8750452 C33.203402,27.8310546 33.2064194,27.7961163 33.2076899,27.7611779 C33.2681968,26.8856539 33.2126131,25.9645512 33.0423679,25.0172447 C32.9775731,24.6654787 32.8109805,24.3515098 32.5602182,24.1099585 C32.4720782,24.0215009 32.3678984,23.9427307 32.2392616,23.8668192 L32.0767981,23.7707386 L32.1866952,23.6173274 C32.4433335,23.2596854 32.5500544,22.8415366 32.4951058,22.4086183 C32.3218432,20.9991724 32.0536118,19.6492805 31.6980344,18.3954691 L31.687394,18.3591014 C31.4491778,17.535191 31.1877752,16.786398 30.887464,16.069526 C29.739103,13.3255928 28.0561848,11.1327331 25.8857175,9.55224794 C23.0979525,7.5215341 20.0211519,6.91122415 17.930884,6.75670123 C17.6119919,6.73351485 17.2680077,6.71811021 16.90846,6.71128134 L16.7787115,6.70874037 L16.4811001,5.60230545 C16.43838,5.44095366 16.4483851,5.27928426 16.5077803,5.15811161 C16.7990393,4.57781691 16.9040133,3.92732783 16.8123794,3.27588588 C16.5620936,1.51578566 14.9269775,0.285319503 13.1668773,0.532270314 C12.310093,0.652807719 11.5536771,1.0990661 11.0334128,1.78973431 C10.516166,2.4829435 10.2968483,3.33321658 10.416274,4.18285442 C10.5050493,4.81428621 10.7788391,5.40188621 11.20874,5.88197129 C11.300215,5.98456307 11.3557988,6.14003885 11.3611984,6.30853712 L11.399313,7.47643183 L11.2735348,7.51534048 C10.9638537,7.61126221 10.6422618,7.72100048 10.3174937,7.84137907 C6.75393792,9.16808458 4.61999706,11.2407245 3.45734311,12.7457745 C1.4255176,15.3694879 0.378795546,18.6656063 0.346398141,22.542337 L0.345921708,22.6549339 C0.345604086,22.6965423 0.345286465,22.7379919 0.345604086,22.7794416 C0.346556951,23.5768306 0.392135654,24.4228158 0.481069708,25.2953224 C0.534112519,25.8252741 0.603830465,26.3603077 0.687841384,26.8861303 C0.73024387,27.1557911 0.832518032,27.4052829 0.991487654,27.6280944 C1.0847096,27.7584781 1.20429414,27.8821917 1.34674744,27.9959003 L1.49872938,28.1169141 L1.36072279,28.2536502 C1.28766982,28.3260679 1.22795695,28.3954683 1.17856679,28.4659803 C1.00720992,28.7068963 0.909223654,28.9935498 0.894613059,29.2954491 C0.889213492,29.3918473 0.895089492,29.4709351 0.898106897,29.5134964 L0.900965492,29.5462114 C0.993552195,30.4239587 1.17856679,31.2645444 1.45060971,32.0446231 C1.63038355,32.5580584 1.85017771,33.0522777 2.10332214,33.5129878 L1.96245695,33.6158972 L2.11618582,33.5369683 Z M14.6617634,39.5438284 C14.4008373,39.5438284 14.1319706,39.5401757 13.856275,39.5320764 C12.2263997,39.4825274 10.7154736,39.291478 9.36526409,38.9636925 C7.58054819,38.5312506 6.02880776,37.8558283 4.75339814,36.9563238 C4.33207306,36.6625238 3.92758192,36.3283859 3.55199436,35.9639151 C2.87752484,35.3173963 2.30532949,34.5809905 1.85176582,33.7761373 L1.8088869,33.6948262 L1.95213425,33.5962047 L1.80078755,33.6792627 C1.53827328,33.2020363 1.31085619,32.6903478 1.12457111,32.1586492 C0.843634789,31.3533196 0.652903005,30.486689 0.557616519,29.5825791 L0.553646249,29.5384297 C0.550152411,29.4922157 0.542847114,29.3950235 0.549675978,29.2773447 C0.567462789,28.9106505 0.687364951,28.5607903 0.896359978,28.2665139 C0.925104735,28.2256995 0.956390465,28.1853616 0.9906936,28.1450236 C0.883337492,28.0451316 0.789321492,27.9393636 0.710392519,27.8286725 C0.519978357,27.5618703 0.397535222,27.2629884 0.346715762,26.9404436 C0.261593168,26.4082686 0.191239978,25.8664061 0.137244303,25.3299432 C0.0473573838,24.446161 0.00114343784,23.5885826 0.000190572973,22.7810297 C-0.000127048649,22.7389448 0.000190572973,22.6954306 0.000508194595,22.6520753 L0.000984627027,22.5372551 C0.0340172757,18.5854069 1.10503738,15.2190941 3.18418852,12.5343973 C4.37431674,10.9939325 6.55685371,8.87285529 10.1971151,7.51756383 C10.4842451,7.41116058 10.7691517,7.31285669 11.0454825,7.2248755 L11.0162613,6.31981269 C11.0126086,6.21642685 10.9790995,6.14337388 10.9513077,6.11208815 C10.4758281,5.5810248 10.1723406,4.93037691 10.0741955,4.23081529 C9.94190614,3.29049648 10.1845691,2.35001885 10.7569232,1.58248621 C11.3334065,0.81749453 12.1706571,0.323592908 13.115105,0.19082707 C15.0673662,-0.0826451459 16.8773331,1.27883994 17.1544579,3.22744858 C17.255938,3.94908491 17.1393709,4.66976837 16.8171438,5.31184048 C16.7995158,5.34804934 16.7915752,5.42507258 16.8147616,5.51337139 L17.0450373,6.36872642 C17.3637706,6.37682577 17.669799,6.39127756 17.9561349,6.41224058 C20.0911874,6.57009853 23.2354827,7.19438383 26.0891541,9.27289972 C28.3113938,10.8913407 30.032903,13.1331141 31.2063561,15.9361249 C31.5114317,16.6653842 31.7774398,17.4264056 32.0191498,18.2627033 L32.029949,18.3000238 C32.3906083,19.5720984 32.6623336,20.9394595 32.8378195,22.3657394 C32.8961031,22.8261319 32.8027224,23.2727079 32.5668883,23.667194 C32.6553459,23.7291302 32.7330044,23.7940838 32.8024047,23.863643 C33.1030336,24.1536315 33.3044057,24.5320777 33.382223,24.9556261 L33.3823818,24.9562613 C33.557709,25.9315185 33.6148808,26.8812072 33.552627,27.7788059 C33.5511977,27.8188262 33.5475451,27.8648813 33.5415102,27.9103012 C33.5099069,28.3341673 33.4444768,28.7788376 33.3483963,29.222555 C33.0314099,30.6586811 32.3879085,31.9933272 31.4353613,33.1898078 C30.464392,34.4070927 29.1618257,35.487165 27.5635537,36.4003272 C26.3378519,37.0959185 24.9407932,37.6962234 23.4111274,38.1848843 C21.392642,38.8323559 19.6792322,39.1123394 19.0360484,39.2025439 L18.9344095,39.2189014 C18.8446814,39.2312887 18.7759163,39.2403409 18.727479,39.2463757 L18.6872999,39.2516165 C18.6425152,39.2592394 18.5964601,39.2662271 18.5429408,39.2743264 L18.3407747,39.3019595 C17.7836664,39.3800944 16.4034416,39.5438284 14.6617634,39.5438284 Z" id="Fill-23"/>
            </g>
            <g id="Group-27" transform="translate(1.270486, 1.432315)">
                <mask id="mask-2" fill="white">
                    <use xlink:href="#path-1"/>
                </mask>
                <g id="Clip-26"/>
                <path d="M12.0351597,0.117678811 C11.4504183,0.199942811 10.9355536,0.505971243 10.5806115,0.976686486 C10.2282103,1.44930746 10.0778164,2.02833168 10.1597628,2.61100854 C10.2205874,3.04345038 10.4146542,3.44937081 10.7013077,3.76953341 C10.9644572,4.06508032 11.1015109,4.4525787 11.1143746,4.84563546 L11.1489954,5.90823859 C11.1661469,6.43167903 10.8293092,6.90191784 10.3314373,7.05644076 C10.01858,7.15268011 9.70921654,7.25876573 9.40287049,7.37231546 C6.07419589,8.61151622 4.07953211,10.5413852 2.99739524,11.9424142 C1.09992368,14.3925474 0.130383676,17.4695068 0.0997331892,21.121679 C0.100209622,21.1961613 0.0986215135,21.2709612 0.0990979459,21.3454435 C0.100050811,22.1266338 0.144517838,22.9302165 0.229322811,23.7622264 C0.279507027,24.2626392 0.345254703,24.773216 0.428471568,25.2952271 C0.447211243,25.4133824 0.491837081,25.5159742 0.554567351,25.6037965 C0.740058378,25.8637698 1.08753643,26.0003471 1.41024,26.0173399 C1.41024,26.0173399 4.60837211,26.2426924 15.5313797,24.7074683 C27.2225551,23.0644117 29.5145128,22.0170544 29.5145128,22.0170544 C29.90884,21.8409332 30.2634645,21.5412572 30.2086748,21.1080213 C30.0390649,19.7298611 29.7816325,18.4425406 29.4422538,17.2455836 C29.4384424,17.2319258 29.4346309,17.2204915 29.4308195,17.2068337 C29.2110253,16.4461299 28.9605806,15.7240172 28.6724978,15.0354135 C27.5959194,12.4634724 26.0363972,10.4246592 24.0123534,8.9505773 C21.4161143,7.05961697 18.53878,6.49313881 16.5847718,6.34877978 C16.2550805,6.32464054 15.9207838,6.31114162 15.5896632,6.30526562 C15.0728929,6.29748389 14.6226642,5.94587676 14.4914865,5.4426053 L14.2216669,4.43907978 C14.1185987,4.05078735 14.1427379,3.63438541 14.3182239,3.27753751 C14.5148317,2.885116 14.5905844,2.43552259 14.5278542,1.98910541 C14.3717431,0.89124627 13.4272952,0.0956041081 12.3475405,0.0956041081 C12.2444723,0.0956041081 12.1401336,0.102750595 12.0351597,0.117678811" id="Fill-25" fill="url(#linearGradient-3)" mask="url(#mask-2)"/>
            </g>
            <g id="Group-30" transform="translate(1.905730, 24.618693)">
                <mask id="mask-5" fill="white">
                    <use xlink:href="#path-4"/>
                </mask>
                <g id="Clip-29"/>
                <path d="M29.2335764,0.132607027 C28.6491526,0.460392541 25.9079192,1.65131481 15.1272062,3.16652876 C4.24580703,4.69571805 1.49504497,4.41367005 0.807870595,4.21023341 C0.540750811,4.130828 0.256797081,4.23119643 0.110691135,4.43907978 C0.0517723243,4.52182022 0.0158810811,4.62361795 0.0114343784,4.73510314 C0.00936983784,4.76353027 0.0115931892,4.7933867 0.0136577297,4.82324314 C0.0984627027,5.62698465 0.265372865,6.38514746 0.511847243,7.09185557 C0.673199027,7.55240692 0.86774227,7.99056595 1.09500054,8.40363286 C1.11088162,8.43158357 1.12517459,8.46191643 1.13914995,8.48812022 C1.52807762,9.17878843 2.01721492,9.80688519 2.59449222,10.3601821 C2.91179622,10.668275 3.25641568,10.9560402 3.63152681,11.2176016 C4.76734173,12.0188022 6.16185946,12.6245066 7.78204735,13.0170869 C9.05412195,13.3258151 10.4705556,13.5013011 11.9918043,13.5473562 C14.0023492,13.6072279 15.6509642,13.4137963 16.2631799,13.3278797 L16.3465556,13.3180334 C16.4647108,13.2994525 16.5496746,13.2875417 16.5887421,13.2780131 L16.5928711,13.2794424 C16.6303505,13.2742016 16.7116616,13.2648318 16.838075,13.2468862 L16.8950881,13.2368811 C17.5134974,13.1520761 19.1656063,12.8816213 21.0870583,12.2651177 C22.5289016,11.8045664 23.8397261,11.2417409 24.981417,10.5939516 C26.4264365,9.76845297 27.5957605,8.80240681 28.4590561,7.72026995 C29.2823314,6.68609395 29.8330872,5.54519708 30.1049714,4.31250757 C30.1894587,3.92389751 30.2483775,3.5270293 30.2755342,3.11825027 C30.2788692,3.11380357 30.2783928,3.1098333 30.2779163,3.10586303 C30.3374704,2.29783362 30.2856981,1.45708919 30.1286342,0.582835676 C30.102748,0.441494054 30.034777,0.316033514 29.9352026,0.223288 C29.8926413,0.178820973 29.8411866,0.141818054 29.7867145,0.113232108 C29.7082619,0.0719412973 29.6217101,0.0522487568 29.5343641,0.0522487568 C29.4305018,0.0522487568 29.3258455,0.0801994595 29.2335764,0.132607027" id="Fill-28" fill="url(#linearGradient-6)" mask="url(#mask-5)"/>
            </g>
            <g id="Group-65" transform="translate(1.270486, 13.025504)">
                <path d="M5.93833324,2.72981491 C3.39910719,3.09126831 1.62725497,5.45119696 1.98870838,7.99042302 C2.35032059,10.5296491 4.71024924,12.3015013 7.2494753,11.9400479 C9.78870135,11.5785945 11.5603948,9.21866583 11.1989414,6.67928096 C10.8374879,4.14005491 8.4775593,2.3683615 5.93833324,2.72981491" id="Fill-31" fill="#005BA0"/>
                <path d="M10.940048,7.16097003 C10.9413185,7.22719414 10.9422713,7.29151252 10.9432242,7.3558309 C10.9429066,7.61167511 10.9176556,7.86100809 10.8733474,8.10494149 C10.5498498,9.90283868 9.10848289,11.3702506 7.20688224,11.6414994 C5.27574278,11.9170362 3.45497683,10.8717434 2.66298732,9.19231911 C2.54038537,8.93568084 2.44398721,8.66522603 2.37411045,8.38301922 L2.37347521,8.37904895 C2.33742516,8.23707209 2.30931564,8.09398355 2.28851143,7.94581306 C1.95103845,5.57413241 3.60679997,3.36745619 5.98054516,3.02982441 C8.35397272,2.6902869 10.5604901,4.34604841 10.8984395,6.72169933 C10.9213083,6.86955219 10.9338543,7.01676982 10.940048,7.16097003 M11.4985856,6.63530625 C11.4933448,6.5978269 11.4863572,6.5625709 11.4807988,6.52302701 C11.475558,6.47141349 11.4666646,6.42234095 11.4555479,6.37152149 C11.4493542,6.34214149 11.4433194,6.31276149 11.4371258,6.28338149 C11.4345848,6.27972884 11.4337908,6.27385284 11.4331555,6.26988257 C11.4345848,6.26559468 11.4323615,6.26400657 11.4298205,6.26019511 C11.4315674,6.25797176 11.4315674,6.25797176 11.4291853,6.25638365 L11.4290265,6.25431911 C11.4306146,6.25209576 11.4306146,6.25209576 11.4283912,6.25034884 C11.4247386,6.23875565 11.4234681,6.22890938 11.4198154,6.21731619 C11.4139394,6.19000074 11.4080634,6.16268528 11.402505,6.13727555 C11.3985348,6.12361782 11.396629,6.10980128 11.3926588,6.09630236 C11.3786834,6.03976571 11.3624847,5.98164095 11.3464448,5.92558074 C11.3397748,5.90636463 11.3356457,5.89080117 11.3291345,5.8736496 L11.3280228,5.86570906 C11.3238937,5.8501456 11.3173825,5.83299403 11.3111888,5.81774819 C11.2957842,5.76549944 11.2784738,5.7135683 11.2594165,5.66386052 C11.2554462,5.6503616 11.2517936,5.63876841 11.2441707,5.62765165 C11.237183,5.60652982 11.2301953,5.58540798 11.2235253,5.56619187 C11.2198726,5.55459868 11.2165376,5.54491122 11.211138,5.53570019 C11.2074854,5.52410701 11.201927,5.51283144 11.1965274,5.5034616 C11.1903338,5.48821576 11.1839814,5.47106419 11.1795347,5.45343619 C11.1671474,5.42294452 11.1525368,5.39086474 11.1379262,5.35862614 C11.1013998,5.27112138 11.0636028,5.18774571 11.019771,5.1053229 C10.997061,5.05815609 10.9726042,5.01321263 10.9481473,4.96842798 C10.9152735,4.90649176 10.8804939,4.84487317 10.8436498,4.78357219 C10.8017238,4.71496592 10.7597977,4.64635965 10.7143778,4.58029436 C10.6275083,4.44943425 10.5331747,4.32365609 10.4313769,4.20105414 C10.3996148,4.16119263 10.3661057,4.12355446 10.3324378,4.08401057 C10.3033754,4.04986625 10.2727249,4.01794528 10.2417568,3.98395976 C10.15854,3.89296117 10.073735,3.80609165 9.98337164,3.72223955 C9.88554418,3.62711187 9.78009381,3.53722495 9.66956148,3.45210236 C9.66019164,3.44336776 9.64859845,3.43288625 9.63541716,3.42462809 C9.6081017,3.40223576 9.57856289,3.37825533 9.54759478,3.35840398 C9.51805597,3.33442355 9.48645262,3.31060192 9.45326116,3.28916246 C9.43976224,3.27883976 9.42626332,3.26867587 9.41101748,3.26073533 C9.36162732,3.22547933 9.31064905,3.19228787 9.25776505,3.15941403 C9.20678678,3.12638138 9.15390278,3.09350755 9.10117759,3.06269825 C9.07656191,3.0458643 9.05051694,3.03141252 9.02431316,3.01711955 C9.01129067,3.01076711 9.00033272,3.00425587 8.98508689,2.99631533 C8.96730008,2.98472214 8.94792516,2.9753523 8.93045597,2.96582365 C8.91076343,2.95438928 8.89091208,2.94311371 8.86963143,2.93406149 C8.81944721,2.90690484 8.76751608,2.88197155 8.7179671,2.85862636 C8.66381262,2.83210495 8.61235791,2.80907738 8.55852105,2.78446171 C8.5562977,2.78271479 8.55391554,2.78096787 8.55391554,2.78096787 C8.51135424,2.76476917 8.46879294,2.74857046 8.42797856,2.73014841 C8.40876245,2.72284311 8.39161089,2.71522019 8.3727124,2.70982063 C8.36620116,2.70664441 8.35778418,2.70378582 8.35159056,2.70267414 C8.32824537,2.69393955 8.30490018,2.68504614 8.28139618,2.67631155 C8.27266159,2.67154722 8.26424462,2.66868863 8.25614526,2.66773576 C8.24312278,2.66154214 8.22819456,2.65550733 8.21326635,2.64963133 C8.19865575,2.64566106 8.18134537,2.63803814 8.16482905,2.63422668 C8.12020321,2.6183456 8.07398926,2.60468787 8.02777532,2.59103014 C8.00236559,2.58261317 7.97505013,2.57435501 7.94773467,2.56609684 C7.92041921,2.55783868 7.89326256,2.55164506 7.86626472,2.54529263 C7.82005078,2.5316349 7.77399564,2.52004171 7.7263524,2.51051306 C7.71984116,2.50749565 7.71174181,2.50654279 7.70523056,2.50352538 C7.6866497,2.50003155 7.66997456,2.4963789 7.6513937,2.49288506 C7.55166051,2.47065155 7.45033921,2.45270592 7.34949435,2.43666603 C7.32884894,2.43348982 7.30820354,2.4303136 7.28771694,2.42713738 C7.26119554,2.42491403 7.23245078,2.42094376 7.20354721,2.41681468 C7.17480245,2.41284441 7.1460577,2.40887414 7.11763056,2.4068096 C7.10127305,2.40506268 7.08491554,2.40331576 7.06855802,2.40156884 C7.01329186,2.39521641 6.96024905,2.3906109 6.90545932,2.38822874 C6.88322581,2.38743468 6.86099229,2.38648182 6.83875878,2.38552895 C6.76554699,2.38171749 6.69058829,2.37822365 6.61817056,2.37822365 C6.60197186,2.37854128 6.58418505,2.38108225 6.56782754,2.37933533 C6.51573759,2.38060582 6.46555337,2.38155868 6.41330462,2.38298798 C6.36105586,2.38425846 6.30912472,2.38743468 6.25751121,2.39267544 C6.20558008,2.39601046 6.15174321,2.3995043 6.09822397,2.40506268 C6.03072937,2.41252679 5.96323478,2.4199909 5.89605781,2.42936074 C5.81125283,2.44127155 5.7285124,2.45492928 5.64450148,2.4728749 C5.57160732,2.48510333 5.50141294,2.50098441 5.42931283,2.51924765 C5.39437445,2.52814106 5.35943608,2.53703446 5.32640343,2.54576906 C5.25636786,2.56371468 5.18458537,2.58372484 5.11518505,2.60564074 C5.0689711,2.62025133 5.02259835,2.63470311 4.97654321,2.65137825 C4.94954537,2.65915998 4.92095943,2.6712296 4.8941204,2.68107587 C4.87490429,2.68774592 4.85584699,2.69441598 4.83853662,2.70092722 C4.82138505,2.70727965 4.80216894,2.71410852 4.78295283,2.72077857 C4.77167726,2.72649576 4.76008408,2.73014841 4.74880851,2.73570679 C4.74515586,2.73824776 4.74118559,2.73872419 4.73753294,2.74126517 C4.68782516,2.76032246 4.63843499,2.7814443 4.59126818,2.80415425 C4.58920364,2.80447187 4.58745672,2.80669522 4.58745672,2.80669522 C4.56474678,2.81590625 4.54187802,2.82527609 4.51916808,2.83639284 C4.50392224,2.84258646 4.48677067,2.84909771 4.46977791,2.85751468 C4.44135078,2.8695843 4.41498818,2.88324203 4.38671986,2.89737619 C4.35082862,2.91452776 4.31731954,2.93326744 4.28539856,2.94994257 C4.27412299,2.95550095 4.26475316,2.96074171 4.25347759,2.9664589 C4.23108526,2.97964019 4.2066284,2.99123338 4.18391845,3.00235014 C4.13929262,3.02887155 4.0964137,3.05301079 4.05401121,3.0811203 C3.97381175,3.12654019 3.89805899,3.17545392 3.82294148,3.22833792 C3.77498062,3.25930603 3.7292431,3.29186225 3.6836644,3.32648301 C3.65603132,3.34442863 3.63062159,3.36412117 3.60346494,3.38603706 C3.46466429,3.48815241 3.33158083,3.60154333 3.20723197,3.71969857 C3.17499337,3.74844333 3.1430724,3.77909382 3.11131024,3.81180884 C2.99966624,3.92011782 2.89500991,4.03557328 2.79527672,4.15626949 L2.72809975,4.23821587 C2.70221359,4.2680723 2.67664505,4.30189901 2.65123532,4.33572571 C2.61185024,4.3855923 2.57484732,4.43704701 2.53975013,4.4883429 C2.52275737,4.51089403 2.50608224,4.5353509 2.49099521,4.55758441 C2.45288062,4.61539155 2.41635413,4.67081652 2.38205099,4.72798841 C2.36394656,4.75673317 2.34552451,4.78357219 2.32964343,4.81390506 C2.28247662,4.89315165 2.23705672,4.97192182 2.19624235,5.05418582 C2.17877316,5.08690084 2.1632097,5.11929825 2.14589932,5.15407782 C2.13510018,5.17774063 2.12239532,5.20156225 2.11159618,5.22522506 C2.09873251,5.24920549 2.08825099,5.27493284 2.07776948,5.30050138 C2.05426548,5.34814463 2.03330245,5.39944052 2.01202181,5.44883068 C2.00090505,5.47042895 1.99217045,5.49393295 1.98534159,5.51696052 C1.96549024,5.56206279 1.94992678,5.60859436 1.9340457,5.65306138 C1.92515229,5.67656538 1.9164177,5.69991057 1.90784191,5.7253203 C1.90275997,5.73199036 1.90196591,5.74024852 1.90085424,5.74644214 L1.8752857,5.82251252 C1.8724271,5.83092949 1.86956851,5.83934646 1.86670991,5.84792225 C1.84145899,5.92589836 1.81811381,6.00371565 1.79873889,6.08105652 C1.79937413,6.08486798 1.79985056,6.08883825 1.79810364,6.09122041 C1.79556267,6.10154311 1.79270408,6.10996009 1.78984548,6.11853587 C1.78190494,6.14775706 1.77571132,6.17491371 1.76935889,6.20191155 C1.76284764,6.22700365 1.75855975,6.25384268 1.75427186,6.28068171 C1.74585489,6.30593263 1.74124937,6.33086592 1.73696148,6.35754614 C1.73235597,6.38232063 1.72584472,6.40741274 1.72123921,6.43234603 C1.71472797,6.45743814 1.71044008,6.48411836 1.70774029,6.50873403 C1.70329359,6.53350852 1.69868808,6.55828301 1.69598829,6.58289868 C1.68979467,6.62403068 1.68312462,6.66325695 1.67883672,6.70407133 C1.67280191,6.74726787 1.6681964,6.78617652 1.66422613,6.82905544 C1.65850894,6.87415771 1.65469748,6.91894236 1.65088602,6.96388582 C1.65136245,6.9959656 1.64802743,7.02868063 1.64596289,7.05726657 C1.64151618,7.12634928 1.63945164,7.1971789 1.63929283,7.2676909 C1.63865759,7.27785479 1.63833997,7.28992441 1.63802235,7.30199403 C1.63849878,7.36234214 1.6388164,7.42284906 1.64119856,7.48287955 C1.64389835,7.57308409 1.64882148,7.66519436 1.65755608,7.75651057 C1.65866775,7.77858528 1.66168516,7.80018355 1.66279683,7.82225825 C1.67057856,7.89165857 1.6785191,7.96312344 1.68820656,8.03220614 C1.69265326,8.06380949 1.69741759,8.09731857 1.70377002,8.12876311 C1.70805791,8.15830192 1.71472797,8.19165219 1.72076278,8.22103219 C1.72393899,8.24263046 1.72663878,8.26248182 1.7314031,8.28201555 C1.73029143,8.28820917 1.7328324,8.29186182 1.73330883,8.29583209 L1.73648505,8.31743036 C1.7372791,8.32346517 1.73775554,8.32743544 1.74061413,8.33299382 C1.75458948,8.40350582 1.77047056,8.47385901 1.78841618,8.54389457 C1.80620299,8.61377133 1.82605435,8.68348928 1.84542926,8.74939576 C1.84622332,8.75527176 1.84908191,8.76083014 1.84971716,8.76480041 C1.84987597,8.76686495 1.85019359,8.76877068 1.85273456,8.77242333 C1.85352862,8.77845814 1.85432267,8.78433414 1.85718126,8.78989252 C1.86369251,8.8072029 1.86813921,8.82467209 1.87465045,8.84198246 C1.87544451,8.84785846 1.87846191,8.85548138 1.88132051,8.86103976 C1.88465554,8.87072722 1.88576721,8.87866776 1.88862581,8.88422614 C1.89196083,8.8939136 1.89529586,8.90344225 1.89672516,8.91328852 C1.90307759,8.9305989 1.90927121,8.94584474 1.91371791,8.96331392 C1.92022916,8.98046549 1.92435824,8.99602895 1.93086948,9.01333933 C1.93309283,9.01492744 1.93341045,9.01699198 1.93388689,9.02096225 C1.93642786,9.0246149 1.93674548,9.02652063 1.93928645,9.03017328 C1.94008051,9.03620809 1.9429391,9.04176646 1.9457977,9.04748365 C1.9457977,9.04748365 1.94627413,9.05145392 1.94659175,9.05335965 C1.96310808,9.09941479 1.98168894,9.1451523 2.00011099,9.19088982 C2.01218062,9.21931695 2.02234451,9.24822052 2.03409651,9.27474192 C2.30121629,9.89982128 2.68506202,10.4521653 3.16181208,10.9068406 C3.65587251,11.3832731 4.24760159,11.7533022 4.89761424,11.9923125 C5.58955294,12.2435512 6.3469217,12.3445549 7.12477705,12.261338 C7.18036083,12.2556208 7.23578581,12.2478391 7.2929577,12.2397398 C7.34631813,12.2322757 7.39777283,12.2251292 7.4487511,12.2159181 C8.2213657,12.0810878 8.92140375,11.7733124 9.51678548,11.3370591 C10.5873292,10.5561864 11.3156355,9.36002333 11.4963622,8.02347155 C11.5077966,7.96137652 11.5149431,7.89801101 11.5198662,7.83273976 L11.5216132,7.83051641 C11.5224072,7.82241706 11.5252658,7.81384128 11.5244718,7.80796528 C11.5298713,7.77493263 11.5311418,7.74062949 11.534318,7.70584992 C11.5419409,7.5880123 11.5478169,7.47239803 11.5468641,7.35170182 C11.5476581,7.28500128 11.5484522,7.21845955 11.5447995,7.15048852 L11.5451172,7.1384189 C11.545276,7.11015057 11.5433702,7.08219987 11.5414645,7.05424917 C11.5397176,7.02836301 11.5378119,7.0004123 11.5336828,6.97071468 C11.5351121,6.9665856 11.534318,6.9607096 11.5336828,6.95673933 C11.5327299,6.92053046 11.5297125,6.88479803 11.5246306,6.84922441 L11.520025,6.81555652 C11.5193898,6.7976109 11.5189134,6.77950646 11.5160548,6.75981392 C11.514149,6.74599738 11.5103376,6.73233965 11.508273,6.71852311 C11.5063673,6.69057241 11.5025559,6.66293933 11.4985856,6.63530625" id="Fill-33" fill="#101770"/>
                <path d="M11.4998084,6.63632264 C11.5576156,7.04240188 11.5636504,7.44355799 11.5234712,7.83502664 C10.8088226,6.59995496 8.74015297,5.90261669 6.43771384,6.23040221 C4.1352747,6.55818772 2.34118897,7.80532902 1.99958692,9.19079453 C1.85173405,8.82616491 1.74564843,8.43914296 1.6878413,8.03306372 C1.30224865,5.32454534 3.18606249,2.81549334 5.89664541,2.42958307 C8.60516378,2.04399042 11.1142158,3.92780426 11.4998084,6.63632264" id="Fill-35" fill-opacity="0.2" fill="#000000"/>
                <path d="M7.05875939,10.6005105 C5.25800361,10.8568311 3.5846141,9.60047878 3.32829345,7.79972299 C3.0719728,5.99912602 4.32832512,4.32573651 6.12908091,4.06925705 C7.92967788,3.8129364 9.60306739,5.06928872 9.85954685,6.87004451 C10.1158675,8.67080029 8.85951518,10.3441898 7.05875939,10.6005105" id="Fill-37" fill="#F7F7F7"/>
                <path d="M7.01414944,7.44794117 C6.06541365,8.26772257 4.79842101,8.36173857 4.18985798,7.65741263 C3.58129495,6.95308668 3.85810219,5.71325068 4.80683798,4.89346928 C5.75557376,4.07368787 7.02256641,3.97967187 7.63112944,4.68399782 C8.23969246,5.38816495 7.96288522,6.62815976 7.01414944,7.44794117" id="Fill-39" fill="#FFFFFF"/>
                <path d="M4.11820254,8.9979188 C3.87411032,8.63741826 3.70608849,8.21593437 3.63954676,7.75601826 C3.61254892,7.57846777 3.60619649,7.4040935 3.6122313,7.23210139 L3.61397822,7.22987804 L3.61366059,7.2278135 C3.61429584,7.17540594 3.61778968,7.12855675 3.62048946,7.07583156 C3.62223638,7.07360821 3.62191876,7.07154366 3.62160114,7.06963794 C3.68099638,6.38849837 3.97352589,5.76119566 4.42994816,5.28222226 L4.44201778,5.26840572 C4.88843497,4.80483696 5.48508719,4.47721026 6.172738,4.38255902 C6.58294632,4.32094042 6.98823151,4.35254377 7.36493076,4.45275339 C7.36715411,4.45450031 7.36715411,4.45450031 7.36905984,4.45418269 C8.27348741,4.69763966 9.02958568,5.36289815 9.37626968,6.25271512 C9.3765873,6.25477966 9.3765873,6.25477966 9.37849303,6.25446204 C9.37881065,6.25652658 9.37912827,6.25843231 9.381034,6.25811469 L9.38135162,6.26017923 L9.38166924,6.26208496 C9.39786795,6.30607556 9.41263735,6.35435404 9.4294713,6.40247372 C9.48267292,6.56620766 9.52491659,6.73740572 9.54762654,6.91352691 C9.61734449,7.3952001 9.56493692,7.86782107 9.41819573,8.29946885 C9.06293595,9.32618075 8.16009649,10.1257932 7.01284719,10.2890507 C5.84574654,10.4551668 4.73692946,9.91806864 4.11820254,8.9979188 M10.1495195,6.6959561 C10.1501548,6.68579221 10.1471374,6.67816929 10.1436435,6.66864064 L10.1434847,6.6665761 C10.1379263,6.62719102 10.1303034,6.58796475 10.118869,6.54921491 C10.1141047,6.52983999 10.1093404,6.51030626 10.1045761,6.49077253 C10.0974296,6.4536108 10.0883774,6.41851361 10.0794839,6.38357523 C10.068526,6.34879566 10.0575681,6.31417491 10.0464513,6.27748961 C10.0377167,6.24445696 10.0270764,6.21174194 10.0186594,6.18061502 C10.0061134,6.14821761 9.99579065,6.11740831 9.98340341,6.08691664 C9.9730807,6.05610734 9.96037584,6.02370994 9.94814741,5.99321826 C9.93576016,5.96272658 9.92369054,5.93414064 9.90939757,5.90396658 C9.89049908,5.85616453 9.86953605,5.80677437 9.84507919,5.76183091 C9.81649324,5.7014828 9.78584276,5.6412935 9.75360416,5.58332756 C9.73915238,5.5531535 9.7232713,5.5252028 9.70516686,5.49756972 C9.68896816,5.46755448 9.67086373,5.43992139 9.65291811,5.41228831 C9.63179627,5.3768735 9.6087687,5.34193512 9.58605876,5.30890248 C9.56064903,5.27205837 9.53539811,5.23537307 9.50808265,5.19900539 C9.48569032,5.16787848 9.46313919,5.13675156 9.43677659,5.10625988 C9.42438935,5.08990237 9.40993757,5.07370366 9.39739151,5.05544042 C9.38754524,5.04273556 9.37769897,5.02987188 9.36801151,5.01923156 C9.35848286,5.00843242 9.34863659,4.99572756 9.33910795,4.98508723 C9.30750459,4.94713145 9.27431314,4.91155783 9.24112168,4.87598421 C9.23842189,4.87026702 9.23381638,4.86693199 9.22936968,4.86343815 L9.13058935,4.76259329 C9.1210607,4.75179415 9.11137324,4.74099502 9.09819195,4.73289566 C9.09120427,4.72574918 9.08183443,4.71701458 9.07294103,4.71018572 C9.06357119,4.70145112 9.05404254,4.69065199 9.0446727,4.68191739 C9.02593303,4.66238366 9.00497,4.64316756 8.98448341,4.62601599 C8.97749573,4.6188695 8.97273141,4.61346994 8.96367919,4.60679988 C8.94986265,4.59457145 8.93636373,4.58440756 8.92254719,4.57217912 C8.88586189,4.54105221 8.84965303,4.51198983 8.81137962,4.48308626 C8.79327519,4.46958734 8.77532957,4.45592961 8.75722514,4.44243069 C8.70735854,4.40304561 8.6538393,4.3662015 8.60286103,4.33316885 C8.59619097,4.32808691 8.58745638,4.32316377 8.57872178,4.31839945 C8.53425476,4.28838421 8.48994654,4.2604335 8.44595595,4.23438853 C8.32033659,4.15736529 8.19217627,4.09066475 8.05718708,4.03317523 C8.02050178,4.01618248 7.98429292,4.00109545 7.94792524,3.98616723 C7.9134633,3.97076258 7.87741324,3.9577401 7.84136319,3.94471761 C7.74544146,3.90771469 7.64650232,3.87738183 7.54613389,3.85117804 C7.53120568,3.84530204 7.51468935,3.84149058 7.49801422,3.83783794 C7.48927962,3.83307361 7.48102146,3.83212075 7.47292211,3.83132669 C7.46466395,3.83037383 7.45624697,3.82751523 7.44814762,3.82672118 C7.42702578,3.81957469 7.40606276,3.81449275 7.383194,3.80956961 C7.36238978,3.80448766 7.33952103,3.79972334 7.31903443,3.79654712 C7.2671033,3.78574799 7.21326643,3.77510766 7.15958838,3.76653188 C7.12433238,3.75938539 7.089394,3.75430345 7.0527087,3.75128604 C7.02602849,3.74699815 6.99744254,3.74509242 6.96901541,3.74302788 C6.95853389,3.74048691 6.94837,3.73985166 6.93630038,3.73953404 C6.90946135,3.73524615 6.88293995,3.73286399 6.85673616,3.73254637 L6.83450265,3.7315935 C6.80607551,3.72968777 6.77748957,3.72762323 6.74938005,3.72746442 C6.6677513,3.72079437 6.58516968,3.72031794 6.50306449,3.72381177 C6.46892016,3.72460583 6.43684038,3.72508226 6.40094914,3.72809966 C6.38887951,3.72778204 6.37506297,3.72984658 6.36283454,3.72952896 C6.3269433,3.73254637 6.29121086,3.73556377 6.25531962,3.73858118 L6.24944362,3.73937523 C6.24325,3.73826356 6.23927973,3.73873999 6.23530946,3.73937523 C6.18988957,3.74572766 6.14812232,3.74953912 6.10460816,3.75573275 L6.08491562,3.75843253 C6.05728254,3.7624028 6.02964946,3.76621426 6.002334,3.77209026 C5.9743833,3.77399599 5.94690903,3.77987199 5.91752903,3.78606561 L5.90180676,3.78828896 C5.8509873,3.79940572 5.80191476,3.80829912 5.75538319,3.82084518 L5.75331865,3.8211628 C5.74347238,3.8225921 5.73187919,3.82624475 5.72235054,3.82957977 C5.68534762,3.8387908 5.64643897,3.84831945 5.60975368,3.85943621 C5.57862676,3.86785318 5.54765865,3.87627015 5.51478481,3.88691048 C5.41632211,3.91692572 5.32055919,3.95249934 5.22749605,3.99172561 C5.19493984,4.00443048 5.16079551,4.01919988 5.12855692,4.03381048 C5.10949962,4.04063934 5.09044232,4.04921512 5.07360838,4.0576321 C5.05439227,4.06446096 5.03771714,4.07478366 5.01881865,4.08351826 C4.90749227,4.13751394 4.79902449,4.19706799 4.69516222,4.25995707 C4.69309768,4.26027469 4.68912741,4.26075112 4.6875393,4.26297448 C4.65434784,4.28584323 4.61909184,4.30696507 4.58637681,4.33158075 C4.53095184,4.3676308 4.47790903,4.40526896 4.42534265,4.44687739 C4.37420557,4.48435675 4.32529184,4.52342421 4.27828384,4.56217404 C4.26557897,4.57202031 4.25287411,4.58186658 4.24048686,4.59377739 C4.18474427,4.64189707 4.1293193,4.69192248 4.07818222,4.74337718 C4.02672751,4.79292615 3.97559043,4.84453966 3.9266767,4.89774129 C3.88316254,4.94617858 3.83980719,4.99652161 3.798834,5.04861156 C3.78978178,5.05591685 3.78136481,5.06719242 3.77453595,5.07624464 C3.769454,5.08291469 3.76405443,5.08767902 3.75897249,5.09450788 C3.74706168,5.11023015 3.73324514,5.12627004 3.72133432,5.14199231 C3.71625238,5.14882118 3.71148805,5.15755577 3.7062473,5.16438464 C3.68083757,5.19805253 3.65542784,5.23187923 3.63017692,5.26761166 C3.61016676,5.29667404 3.5917447,5.32351307 3.57364027,5.35209902 C3.53361995,5.4121295 3.49598178,5.47390691 3.46040816,5.53520788 C3.45246762,5.55045372 3.44230373,5.56395264 3.43436319,5.57919848 C3.43261627,5.58142183 3.43261627,5.58142183 3.43293389,5.58348637 C3.42499335,5.59857339 3.41705281,5.61381923 3.41070038,5.62684172 C3.38671995,5.67051469 3.36464524,5.71387004 3.34447627,5.75706658 C3.34272935,5.75928994 3.34114124,5.76151329 3.34114124,5.76151329 L3.34130005,5.76341902 C3.32859519,5.78739945 3.31779605,5.81106226 3.30699692,5.83472507 C3.29032178,5.8733161 3.27364665,5.91190712 3.2568127,5.95065696 C3.20694611,6.06833577 3.16374957,6.19125534 3.12690546,6.31528658 C3.12738189,6.31925685 3.12627022,6.32545048 3.12484092,6.32973837 C3.11340654,6.36356507 3.10387789,6.39516842 3.09641378,6.42835988 C3.05972849,6.56843102 3.03146016,6.71136075 3.01335573,6.85492572 C3.00938546,6.88367048 3.00732092,6.91225642 3.00335065,6.94100118 C2.99493368,6.99658496 2.99064578,7.0515335 2.98826362,7.10616442 C2.98413454,7.1631775 2.98207,7.21987296 2.98222881,7.27831534 C2.9806407,7.32484691 2.98143476,7.37312539 2.98191119,7.41933934 C2.98397573,7.46332994 2.9865167,7.50938507 2.98889886,7.55528139 C2.99112222,7.59927199 2.99493368,7.64103923 2.99906276,7.68487102 L2.99938038,7.68677675 C3.00255659,7.73870788 3.0100207,7.79206831 3.017326,7.84336421 L3.02955443,7.93023372 C3.03257184,7.93785664 3.03400114,7.94786172 3.03511281,7.95564345 L3.03781259,7.9754948 C3.04178286,7.98899372 3.04368859,8.00281026 3.04734124,8.01440345 C3.05289962,8.03981318 3.05686989,8.06744626 3.06274589,8.09476172 C3.08418535,8.2046588 3.11324773,8.31137966 3.14834492,8.41714766 C3.15310924,8.43668139 3.1597793,8.4558975 3.16883151,8.47670172 C3.17041962,8.48861253 3.17407227,8.50020572 3.17963065,8.51148129 C3.17820135,8.51561037 3.18105995,8.52132756 3.18360092,8.52498021 C3.18693595,8.53466766 3.19011216,8.54229058 3.19535292,8.55150161 L3.19567054,8.55356615 C3.19598816,8.55547188 3.19598816,8.55547188 3.19614697,8.55753642 L3.19455886,8.55975977 C3.26062416,8.7438215 3.34209411,8.92168961 3.43626892,9.08971145 C4.14043605,10.3605156 5.57799151,11.1293187 7.1025753,10.9130184 C8.60317865,10.6981473 9.75519227,9.59345934 10.100447,8.20958194 C10.1536486,8.00058691 10.1874753,7.78238085 10.2009742,7.56290431 C10.2017683,7.55480496 10.2028799,7.54861134 10.2017683,7.5406708 C10.2012918,7.52256637 10.2027211,7.50430312 10.2065326,7.48762799 L10.2071678,7.42108626 C10.2068502,7.41918053 10.2082795,7.41489264 10.2060562,7.41314572 C10.2090736,7.30594842 10.2057385,7.19573372 10.1982744,7.08599545 C10.1923984,7.00023761 10.1820757,6.91305048 10.1698473,6.82602215 L10.1565072,6.7312121 C10.1528545,6.71961891 10.1512664,6.70786691 10.1495195,6.6959561" id="Fill-41" fill="#101770"/>
                <path d="M10.1713084,6.82543455 C10.2067232,7.0744499 10.2164106,7.32060666 10.2000531,7.5621579 C9.63246328,5.98357844 8.01846901,4.96464828 6.29251311,5.21032861 C4.56449268,5.45632655 3.29892933,6.88514742 3.19443182,8.55933098 C3.11137376,8.33207271 3.05181971,8.09290363 3.0164049,7.84388828 C2.73530976,5.86907585 4.10886446,4.03957531 6.08574144,3.75816255 C8.06071268,3.47706742 9.89021322,4.85046331 10.1713084,6.82543455" id="Fill-43" fill-opacity="0.2" fill="#000000"/>
                <path d="M22.0158157,0.441128789 C19.4765896,0.802582195 17.7047374,3.16251084 18.0661908,5.7017369 C18.427803,8.24112176 20.7877317,10.0128152 23.3269577,9.65136176 C25.8661838,9.28990836 27.6378772,6.92997971 27.2764238,4.39075365 C26.9149704,1.85136879 24.5550417,0.0796753838 22.0158157,0.441128789" id="Fill-45" fill="#005BA0"/>
                <path d="M26.9914219,4.56671603 C27.0038091,4.66978425 27.0119085,4.76935863 27.0161964,4.87147398 L27.0163552,4.87337971 C27.017308,4.93769809 27.0203254,5.00169884 27.0196902,5.06839938 C27.0192138,5.38062144 26.9841166,5.68966728 26.9148751,5.98537301 C26.5357937,7.70243549 25.126983,9.08678933 23.2847776,9.34978003 C21.9637892,9.53940014 20.6926675,9.10775236 19.7683886,8.27891874 C19.386131,7.93779311 19.0600924,7.52440857 18.8148885,7.05528144 C18.6579834,6.75512901 18.5339522,6.43210782 18.4501,6.09336436 L18.4497824,6.09145863 C18.4161145,5.95122868 18.3856229,5.80639322 18.3651363,5.66028728 C18.0271869,3.28463636 19.6829484,1.07796014 22.0585993,0.740010735 C24.4321857,0.402378951 26.637115,2.06052263 26.9764937,4.43188565 C26.9831637,4.47921128 26.9891985,4.52272544 26.9914219,4.56671603 M27.5547238,4.20351571 C27.5499595,4.18414079 27.5472597,4.16428944 27.5440835,4.14253236 C27.5429718,4.13475063 27.5399544,4.12712771 27.5388427,4.11918717 C27.5355077,4.09552436 27.530267,4.07202036 27.5248674,4.04867517 C27.5229617,4.03485863 27.519309,4.02326544 27.5174033,4.0094489 C27.510098,3.97212836 27.500887,3.93512544 27.4938993,3.89986944 C27.4938993,3.89986944 27.4913583,3.89621679 27.4910407,3.89431106 C27.4908819,3.89224652 27.4888173,3.89256414 27.4888173,3.89256414 C27.4846883,3.87700068 27.4821473,3.85921387 27.4780182,3.84365041 C27.4765889,3.83380414 27.4735715,3.82618122 27.4724598,3.81824068 C27.4713482,3.81045895 27.4702365,3.80251841 27.4670603,3.79489549 C27.4575316,3.75598684 27.4460972,3.71723701 27.4346629,3.67864598 C27.4310102,3.66705279 27.4295809,3.65720652 27.4240225,3.64577214 C27.4200523,3.63227322 27.416082,3.6187743 27.4122705,3.60527538 C27.4005185,3.56461982 27.386702,3.52412306 27.3733619,3.48584965 C27.3685976,3.46631592 27.3617687,3.44709982 27.3550986,3.42788371 C27.3503343,3.40850879 27.3436643,3.38929268 27.3349297,3.37039419 C27.3150783,3.3146516 27.2953858,3.26113236 27.2715642,3.20602501 C27.2566359,3.17188068 27.2434546,3.13551301 27.228844,3.10327441 C27.2277324,3.09533387 27.2243973,3.08580522 27.2193154,3.07834111 C27.2134394,3.06515982 27.207881,3.05388425 27.2039107,3.04022652 C27.1888237,3.00417646 27.1716722,2.96828522 27.1545206,2.93239398 C27.1519796,2.92874133 27.151662,2.9268356 27.149121,2.92302414 C27.1345104,2.89094436 27.1200586,2.85870576 27.1037011,2.82884933 C27.083691,2.7872409 27.0638396,2.74579128 27.0401768,2.70672382 C27.0123849,2.65225171 26.9828461,2.60000295 26.9514016,2.54807182 C26.9328207,2.51646846 26.9143986,2.4847063 26.8961354,2.45516749 C26.8570679,2.3921196 26.8162536,2.33129506 26.7754392,2.27062933 C26.7752804,2.2687236 26.7728982,2.26697668 26.7727394,2.26491214 C26.7721042,2.26110068 26.7698808,2.25935376 26.7673398,2.25570111 C26.7644812,2.24998392 26.7617814,2.24442555 26.7592405,2.24061409 C26.7417713,2.21695128 26.7246197,2.19519419 26.7093739,2.17311949 C26.7042919,2.16581419 26.6990512,2.15644436 26.6919047,2.14945668 C26.6691947,2.11642403 26.6469612,2.08720284 26.6225044,2.05639355 C26.6220279,2.05258209 26.6196458,2.05083517 26.6151991,2.04734133 C26.5999532,2.02542544 26.5826429,2.00160382 26.5654913,1.97984674 L26.5338879,1.94204976 C26.531347,1.93839711 26.528806,1.93474446 26.5243593,1.93125063 L26.4956145,1.89901203 C26.4878328,1.88598955 26.4781453,1.87534922 26.4686167,1.86455009 C26.4200206,1.80499603 26.3672954,1.74591841 26.3153643,1.69081106 C26.2461227,1.61378782 26.1732286,1.53946436 26.0989051,1.46942879 C26.0636491,1.43401398 26.0264874,1.39891679 25.9855142,1.36445484 C25.7754075,1.1743583 25.5498962,1.00268382 25.3092978,0.853242843 C25.273883,0.830056465 25.2367212,0.809093438 25.2014652,0.787812789 C25.0890272,0.719047708 24.9757951,0.658381978 24.8589103,0.600257222 C24.8462054,0.59596933 24.833183,0.589775708 24.8203193,0.583582086 C24.8134904,0.578500141 24.8069792,0.575323924 24.8004679,0.572306519 C24.7982446,0.5705596 24.7982446,0.5705596 24.797927,0.568495059 C24.7917333,0.567383384 24.7833164,0.564524789 24.7768051,0.561507384 C24.7658472,0.554996141 24.7552069,0.550390627 24.7444077,0.545943924 C24.7269385,0.536256465 24.7078812,0.528792357 24.6883475,0.51958133 C24.6799305,0.516722735 24.6711959,0.5117996 24.662779,0.508941005 C24.6432452,0.499729978 24.6241879,0.49226587 24.6049718,0.484960573 C24.542718,0.457327492 24.4787172,0.432076573 24.4147165,0.406825654 C24.3659616,0.389515276 24.3191124,0.372046086 24.2706751,0.356641438 C24.2284314,0.342507276 24.1861877,0.328214303 24.1437852,0.314080141 C24.0110194,0.272312897 23.8771419,0.236739276 23.7421527,0.207359276 C23.7068967,0.200212789 23.6694173,0.191319384 23.6346378,0.188143168 C23.5930293,0.177979276 23.5538031,0.171309222 23.5123534,0.163051059 C23.4728096,0.154634086 23.4316776,0.148281654 23.3908632,0.143993762 C23.3247979,0.133035816 23.2593678,0.126206951 23.1939378,0.119219276 C23.1917144,0.117472357 23.1898087,0.117789978 23.1877442,0.1181076 C23.1488355,0.113502086 23.1080211,0.109214195 23.0673656,0.106832032 C23.0591074,0.105879168 23.051008,0.105085114 23.0430675,0.106196789 C23.0103525,0.102702951 22.9779551,0.101273654 22.9455577,0.0996855459 C22.8783807,0.0950800324 22.8094568,0.0926978703 22.7389448,0.0925390595 C22.6763733,0.091268573 22.612055,0.0922214378 22.5480542,0.0952388432 C22.5375727,0.0926978703 22.5277264,0.0939683568 22.5158156,0.0957152757 C22.4716662,0.0958740865 22.4275168,0.0980974378 22.3838438,0.102226519 C22.3416002,0.102067708 22.2998329,0.105879168 22.2599714,0.109531816 C22.2420258,0.110008249 22.2221744,0.112708032 22.2043876,0.115249005 C22.1268879,0.12207787 22.0514528,0.130812465 21.9744296,0.1416116 C21.8046608,0.165433222 21.6401328,0.198624681 21.4763989,0.237692141 C21.4706817,0.240550735 21.4627411,0.241662411 21.4568651,0.242456465 C21.4509891,0.243250519 21.4451131,0.244203384 21.4373314,0.247220789 C21.3907998,0.259766843 21.3460152,0.270089546 21.2996424,0.284700141 C21.2821732,0.289146843 21.2629571,0.295975708 21.2454879,0.300422411 C21.1876808,0.318685654 21.1297149,0.336790086 21.0720665,0.356959059 C21.0585676,0.36092933 21.0453863,0.36680533 21.0301405,0.372998951 C21.0069541,0.380304249 20.9840853,0.389515276 20.9589932,0.397138195 C20.9453355,0.400949654 20.9300897,0.407143276 20.9148438,0.413336897 C20.8994392,0.417465978 20.8857814,0.421436249 20.8726002,0.427312249 C20.8686299,0.427947492 20.866883,0.430170843 20.865136,0.432394195 C20.7582564,0.473685005 20.6516943,0.518787276 20.5481497,0.569606735 C20.4893897,0.59596933 20.4349176,0.623761222 20.3786985,0.653935276 C20.3521771,0.665687276 20.3261322,0.681409546 20.2999284,0.695226086 C20.2905585,0.700466843 20.279283,0.706184032 20.2680074,0.711742411 C20.2456151,0.724923708 20.2252873,0.737946195 20.2046419,0.74874533 C20.197019,0.751921546 20.1917782,0.75668587 20.1843141,0.761767816 C20.1431821,0.783683708 20.1041146,0.807346519 20.0653648,0.832915059 C20.0485309,0.841332032 20.0318557,0.851654735 20.0154982,0.864041978 C19.9764307,0.887704789 19.9397454,0.912955708 19.9009956,0.938524249 C19.7702943,1.02539376 19.6445162,1.11956857 19.5235023,1.21914295 C19.5038098,1.23613571 19.4820527,1.25328728 19.4622013,1.27012122 C19.4350447,1.29203711 19.4099526,1.31379419 19.3870838,1.33713938 C19.3618329,1.35873765 19.3367408,1.38033592 19.3118075,1.40399874 C19.3008496,1.41162165 19.292115,1.42099149 19.2849685,1.42797917 C19.2671817,1.44449549 19.2513006,1.46085301 19.2354195,1.47721052 C19.2335138,1.47752814 19.2338314,1.47943387 19.2338314,1.47943387 C19.1893644,1.52199517 19.1453738,1.56646219 19.1031301,1.6106116 C19.020072,1.6928756 18.9419371,1.78228609 18.8661844,1.8736023 C18.8647551,1.87773138 18.86142,1.8823369 18.8560205,1.88710122 C18.8472859,1.89631225 18.840457,1.90536446 18.8336282,1.91441668 C18.8266405,1.92140436 18.819494,1.92839203 18.8129827,1.93950879 C18.7788384,1.98254652 18.7427884,2.0278076 18.7089617,2.07290987 C18.6713235,2.12055311 18.6376556,2.16756111 18.6062111,2.21631603 C18.5725432,2.26332403 18.5390341,2.31223776 18.5077484,2.36099268 C18.4793212,2.40323636 18.4532763,2.44722695 18.4272313,2.49121755 C18.4221493,2.4978876 18.4170674,2.50471646 18.41405,2.51122771 C18.3892755,2.55093041 18.3667244,2.59031549 18.346079,2.62954176 C18.3281333,2.66019225 18.3106642,2.69290728 18.2930362,2.7256223 C18.1972732,2.90412565 18.1124683,3.08929906 18.0406858,3.28066609 C18.0298866,3.3043289 18.0233754,3.32942101 18.0146408,3.35276619 C17.9981245,3.39342176 17.9839903,3.43566544 17.9696973,3.47790911 C17.9609627,3.50141311 17.9541339,3.52444068 17.9476226,3.54953279 C17.9361883,3.58335949 17.9250715,3.61925074 17.9157017,3.65275982 C17.8839395,3.75598684 17.8580533,3.85826101 17.8347082,3.96418782 C17.8250207,4.00992533 17.8153332,4.05566284 17.8078691,4.10298846 C17.8000874,4.13427419 17.7927821,4.16762446 17.7872237,4.2004983 C17.7818242,4.23353095 17.7784891,4.26624598 17.7729307,4.29927863 C17.7664195,4.3385049 17.7621316,4.37931928 17.7575261,4.41822792 C17.7560968,4.42251582 17.7562556,4.42442155 17.7548263,4.42870944 C17.7492679,4.45967755 17.7451389,4.4884223 17.7433919,4.51891398 C17.7394217,4.54765874 17.7356102,4.57846803 17.7359278,4.60864209 C17.7348162,4.61483571 17.7356102,4.62071171 17.7344985,4.62690533 C17.7330692,4.63119322 17.7335457,4.63516349 17.7321164,4.63929257 C17.7306871,4.64358046 17.7313223,4.64755074 17.7317987,4.65152101 C17.7310047,4.65962036 17.7300518,4.66787852 17.7310047,4.67375452 C17.7251287,4.76125928 17.721476,4.85035214 17.7179822,4.93944501 C17.7171882,5.00598674 17.7165529,5.07252846 17.7178234,5.13891138 C17.7189351,5.20513549 17.7225877,5.27310652 17.7257639,5.33917182 C17.7348162,5.47495506 17.7476798,5.61010306 17.7668959,5.74636274 C17.7740424,5.78352446 17.7796008,5.82306836 17.7850004,5.86054771 C17.7862709,5.87055279 17.7902411,5.88405171 17.7896059,5.8942156 C17.7964347,5.92756587 17.8007226,5.95901041 17.8072339,5.99045495 C17.8226385,6.05667906 17.8362963,6.12528533 17.8515421,6.19166825 C17.8518597,6.19357398 17.8521773,6.19563852 17.8521773,6.19563852 C17.8504304,6.19786187 17.8526538,6.19960879 17.8547183,6.19929117 C17.856624,6.21310771 17.8602767,6.2247009 17.8621824,6.23851744 C17.8661527,6.25201636 17.8698053,6.26360955 17.8737756,6.27710846 C17.8794928,6.30458274 17.8874333,6.33158057 17.8933093,6.35905484 C17.9142724,6.43655452 17.9369823,6.51198965 17.961598,6.58710717 C17.967474,6.60028846 17.9711266,6.61188165 17.9747793,6.62347484 C17.9854196,6.65618987 17.9960599,6.68906371 18.0084472,6.71955538 C18.0187699,6.75020587 18.0311571,6.78069755 18.0414798,6.81150684 C18.0518025,6.84231614 18.0638722,6.87074328 18.0762594,6.90123495 C18.1099273,6.98318133 18.1429599,7.06115744 18.1802805,7.14040403 C18.4226258,7.66035063 18.7546992,8.13138349 19.1512498,8.53079268 C20.2125824,9.60435376 21.7555883,10.1790901 23.3694237,9.95214944 C25.547514,9.64215074 27.1921587,7.95859733 27.5498007,5.90231495 C27.571399,5.78431852 27.5888682,5.6650516 27.6004613,5.54657874 L27.6001437,5.54467301 C27.6018906,5.54244965 27.6014142,5.53847938 27.6010966,5.53641484 C27.6142779,5.41571863 27.6211067,5.29200501 27.6236477,5.16670328 C27.6261887,5.14224641 27.6271416,5.11985409 27.6260299,5.09793819 C27.6265063,5.02933192 27.6269827,4.96088446 27.6228537,4.88894317 C27.6231713,4.87671474 27.6234889,4.86464511 27.6234889,4.85051095 C27.6211067,4.79048046 27.6165012,4.72870306 27.6120545,4.66883138 C27.6104664,4.64294522 27.6085607,4.61499452 27.604908,4.58926717 C27.5985556,4.51557895 27.5906151,4.4442729 27.5802924,4.37121992 L27.5769573,4.3473983 C27.5702873,4.30007268 27.5613939,4.25100014 27.5547238,4.20351571" id="Fill-47" fill="#101770"/>
                <path d="M27.5773067,4.34763652 C27.6351139,4.75371576 27.6411487,5.15487187 27.6009695,5.54634052 C26.8863209,4.31126884 24.8176513,3.61393057 22.5152121,3.94171609 C20.212773,4.2695016 18.4186873,5.5166429 18.0770852,6.90210841 C17.9292323,6.53747879 17.8231467,6.15045684 17.7653396,5.7443776 C17.3797469,3.03585922 19.2635608,0.526807222 21.9741437,0.140896951 C24.6826621,-0.244695697 27.1917141,1.63911814 27.5773067,4.34763652" id="Fill-49" fill-opacity="0.2" fill="#000000"/>
                <path d="M23.1362418,8.31182434 C21.335486,8.56814498 19.6620965,7.31179266 19.4057759,5.51103688 C19.1494552,3.7104399 20.4058075,2.03705039 22.2065633,1.78057093 C24.0071603,1.52425028 25.6805498,2.78060261 25.9370293,4.58135839 C26.1933499,6.38211417 24.9369976,8.05550369 23.1362418,8.31182434" id="Fill-51" fill="#F7F7F7"/>
                <path d="M23.0916318,5.15927093 C22.1428961,5.97905234 20.8759034,6.07306834 20.2673404,5.36874239 C19.6587774,4.66441644 19.9355846,3.42458044 20.8843204,2.60479904 C21.8330562,1.78501763 23.1000488,1.69100163 23.7086118,2.39532758 C24.3171749,3.09949471 24.0403676,4.33948952 23.0916318,5.15927093" id="Fill-53" fill="#FFFFFF"/>
                <path d="M21.221444,7.65371234 C20.8650725,7.45408715 20.5534857,7.18569688 20.3041527,6.86013471 C20.0013005,6.46755439 19.7913526,5.99159839 19.7159175,5.46831677 C19.6928899,5.29028985 19.6825672,5.11655082 19.6901901,4.94217655 L19.6900313,4.94027082 C19.6889197,4.89008661 19.6913018,4.83529688 19.6984483,4.78590671 C19.6982895,4.78400098 19.6979719,4.78209525 19.6979719,4.78209525 C19.7589552,4.09873234 20.0552962,3.46888866 20.5133066,2.98753309 L20.5187061,2.98276877 C20.9625824,2.51554736 21.5652694,2.18919115 22.2524438,2.09056963 C22.6634461,2.03482704 23.0660315,2.06087201 23.4432072,2.16489309 L23.445113,2.16457547 C24.3498581,2.41009698 25.10548,3.0713852 25.4526404,3.96517244 C25.4526404,3.96517244 25.4545461,3.96485482 25.4548638,3.96691936 C25.4736034,4.01456261 25.4885317,4.06284109 25.5055244,4.1128665 L25.505842,4.11477223 C25.5607906,4.27628282 25.6009697,4.44795731 25.6257442,4.62376088 C25.6624295,4.88436942 25.6643352,5.14196055 25.6346376,5.38986423 C25.6030342,5.66619504 25.5315694,5.93204434 25.4278659,6.18233017 C25.0386206,7.12534877 24.1753251,7.84682628 23.0911237,8.00119039 C22.4215773,8.0953652 21.7739468,7.9587879 21.221444,7.65371234 M26.2287488,4.41413061 C26.2270019,4.40221979 26.2233493,4.39062661 26.2220788,4.38078034 C26.2147735,4.34345979 26.2077858,4.30820379 26.1988924,4.27326542 C26.1877757,4.20831179 26.1709417,4.14621677 26.152202,4.08443936 C26.1356857,4.02425006 26.1191694,3.96421958 26.0990004,3.90657125 C26.0807372,3.84876412 26.0608858,3.79318034 26.0388111,3.73584963 C26.0292825,3.71091634 26.0194362,3.68407731 26.0099075,3.65930282 C26.0073666,3.65565017 26.004508,3.64993298 26.0016494,3.64437461 C25.998632,3.63675169 25.9956146,3.62912877 25.9924384,3.62150585 C25.9773513,3.58529698 25.9621055,3.54908812 25.9430482,3.5135145 C25.9368546,3.49826866 25.9284376,3.48143471 25.9203382,3.46634769 C25.9195442,3.46047169 25.9166856,3.45491331 25.913827,3.44919612 C25.9050924,3.43029763 25.8966754,3.41330488 25.8880997,3.39440639 C25.8680895,3.35295677 25.8439502,3.30991904 25.8183817,3.27132801 C25.8099647,3.25433525 25.8018654,3.23940704 25.7917015,3.22463763 C25.7866195,3.21733234 25.7834433,3.20970942 25.778679,3.20430985 C25.772803,3.19096974 25.7651801,3.18001179 25.7573984,3.16698931 C25.7410408,3.13713288 25.7227776,3.10743525 25.7029262,3.07996098 C25.684663,3.05042217 25.6646528,3.0229479 25.6467072,2.99531482 C25.6111336,2.94386012 25.5738131,2.89272304 25.534428,2.84190358 C25.5290284,2.83253374 25.5217231,2.82348152 25.5147354,2.81649385 C25.4953605,2.79298985 25.4734446,2.7658332 25.4520052,2.74264682 C25.4421589,2.72994196 25.434536,2.71898401 25.4250073,2.70818488 C25.4123025,2.68976282 25.3980095,2.67372293 25.3837165,2.65752423 C25.3479841,2.61829796 25.311934,2.57700715 25.272549,2.54032185 C25.2441218,2.50998898 25.2134713,2.47806801 25.1832973,2.45011731 C25.1596345,2.42518401 25.1343835,2.40263288 25.1089738,2.37992293 C25.0810231,2.35371915 25.0513255,2.32767417 25.0216279,2.30353493 C24.9781137,2.26542034 24.9326938,2.22952909 24.8874327,2.19363785 C24.867105,2.1782332 24.8491593,2.16473428 24.8288315,2.14948844 C24.7541905,2.09136369 24.6762144,2.03800325 24.5969678,1.99067763 C24.5725109,1.9740025 24.5459895,1.95748617 24.5197857,1.94303439 C24.4316457,1.88903871 24.342394,1.84107785 24.2515542,1.79756369 C24.2496485,1.7977225 24.2477428,1.79804012 24.2453606,1.7962932 C24.2453606,1.7962932 24.2452018,1.79438747 24.2431373,1.79470509 C24.2405963,1.79089363 24.2405963,1.79089363 24.2386906,1.79121125 C24.2364672,1.78962315 24.2340851,1.78787623 24.2318617,1.78612931 C24.1907297,1.76580152 24.1456274,1.74595017 24.1029073,1.72768693 C24.0535172,1.70640628 24.0025389,1.68750779 23.9534664,1.66813288 C23.9043938,1.64891677 23.8559565,1.63351212 23.8051371,1.61651936 C23.7544764,1.59952661 23.7020688,1.5847572 23.6536315,1.56935255 C23.6177403,1.55823579 23.5821667,1.54918358 23.5467519,1.53997255 C23.5300767,1.5363199 23.5132428,1.53060271 23.4965677,1.52695006 C23.4505125,1.51519806 23.4009635,1.50614585 23.3533203,1.49677601 C23.34935,1.49725244 23.3450621,1.49582315 23.3388685,1.49471147 C23.314094,1.49010596 23.2870962,1.48391234 23.2605748,1.48153017 C23.2380237,1.47867158 23.2173782,1.47549536 23.1967328,1.47231915 C23.1475015,1.46517266 23.0981113,1.45802617 23.0471331,1.45310304 C22.9977429,1.44595655 22.9469234,1.44309796 22.8981685,1.43976293 C22.8837167,1.4378572 22.8694238,1.43579266 22.8552896,1.43579266 C22.8004999,1.4334105 22.7438044,1.43134596 22.6894911,1.43086952 C22.6389893,1.42991666 22.5867405,1.43118715 22.5348094,1.43452217 C22.499077,1.43753958 22.4649326,1.43833363 22.4290414,1.44135104 C22.3436012,1.44929158 22.2538731,1.45580282 22.1670035,1.46803125 C22.164939,1.46834888 22.164939,1.46834888 22.1630333,1.4686665 C21.9259287,1.50201677 21.6961295,1.55839461 21.477447,1.63541785 C21.4561664,1.64240552 21.4332976,1.65177536 21.41027,1.65908066 C21.3184774,1.69401904 21.2309726,1.73054552 21.1439443,1.77088347 C21.1024947,1.79089363 21.0608862,1.81090379 21.0197542,1.83281969 C20.9765577,1.85489439 20.9352669,1.87681028 20.8942937,1.90079071 C20.8307694,1.9358879 20.7694684,1.97273201 20.7103908,2.01116423 C20.7027679,2.01418163 20.6954626,2.01926358 20.6883161,2.02641006 C20.6643357,2.04181471 20.6424198,2.05706055 20.6185981,2.07437093 C20.4567699,2.18379158 20.3049468,2.30782282 20.1650345,2.44440012 C20.1491534,2.46059882 20.1313666,2.47727396 20.1154855,2.49363147 C20.1064333,2.50093677 20.1013513,2.50760682 20.0922991,2.51491212 C20.0714949,2.5380985 20.0484673,2.56144369 20.0276631,2.58447125 C20.0100351,2.60305212 19.9928835,2.62369752 19.9755732,2.64418412 C19.9722381,2.64863082 19.9668386,2.65355396 19.961439,2.65831828 C19.9523868,2.66562358 19.9455579,2.67451698 19.9387291,2.6835692 C19.9179248,2.70675558 19.8991852,2.73153006 19.8802867,2.75424001 C19.8767928,2.75868671 19.8715521,2.76360985 19.8680582,2.76805655 C19.8455071,2.79346628 19.8234324,2.82268747 19.8013577,2.85190866 C19.7807123,2.87700077 19.7622902,2.90383979 19.7438682,2.93052001 C19.7422801,2.93274336 19.7387862,2.93734888 19.737357,2.94147796 C19.72894,2.95275352 19.7184585,2.96434671 19.7102003,2.97752801 C19.6077673,3.1228399 19.5162923,3.27466304 19.4381574,3.43474434 C19.4276759,3.46047169 19.4151298,3.48635785 19.4025838,3.51224401 C19.3978194,3.52097861 19.3927375,3.52780747 19.3898789,3.53622444 C19.3739978,3.56671612 19.3619282,3.59450801 19.3500174,3.62436444 C19.3408064,3.6458039 19.3339775,3.66899028 19.3249253,3.69042974 C19.2930043,3.7633239 19.2650536,3.83780617 19.2415496,3.91355893 C19.2299564,3.9454799 19.220269,3.97708325 19.2105815,4.00852779 C19.1893008,4.07205212 19.1721493,4.13684693 19.1591268,4.20116531 C19.1516627,4.23435677 19.1440398,4.2656425 19.1365757,4.29899277 C19.1343523,4.31138001 19.1297468,4.32202034 19.1294292,4.33424877 L19.1276822,4.33647212 C19.123712,4.35108271 19.1218062,4.3655345 19.117836,4.38014509 C19.1143421,4.39872596 19.1108483,4.41730682 19.1075133,4.4360465 C19.1005256,4.48734239 19.0914734,4.53689136 19.0865502,4.58802844 C19.0816271,4.62487255 19.0787685,4.66155785 19.0759099,4.69824315 C19.0600288,4.85753039 19.0543117,5.01745288 19.0632051,5.18150444 C19.0622522,5.21787212 19.0652696,5.25360455 19.068287,5.28949579 C19.0695575,5.32761039 19.0724161,5.36143709 19.0754335,5.39732834 L19.0755923,5.39923406 C19.0808331,5.45084758 19.0863914,5.50452563 19.0956025,5.5555039 C19.1014785,5.59695352 19.1075133,5.64046769 19.1151362,5.67969396 C19.127047,5.75052358 19.1427693,5.81881223 19.1586504,5.88916542 C19.168179,5.92807406 19.1777077,5.96698271 19.189142,6.00573255 C19.1986707,6.0446412 19.2097874,6.0813265 19.221063,6.11801179 C19.2321798,6.15469709 19.2434553,6.19138239 19.2585424,6.22759125 C19.2618774,6.2371199 19.267277,6.24648974 19.2709296,6.25808293 C19.2691827,6.26030628 19.2720413,6.26602347 19.2723589,6.2679292 L19.2725177,6.26983493 C19.3589108,6.51154498 19.4694431,6.73975612 19.602209,6.95272142 C19.8447131,7.34561936 20.1626523,7.68769785 20.5310934,7.95815266 C21.2674991,8.49731536 22.2051181,8.76221179 23.1802165,8.62118779 C24.6179308,8.4171159 25.7370706,7.39373904 26.127904,6.09006109 C26.2081034,5.82897612 26.25797,5.55407461 26.2770273,5.2734559 L26.2767097,5.27139136 C26.2822681,5.2102492 26.2835386,5.14767774 26.2848091,5.08494747 C26.2836974,5.07700693 26.2844914,5.06890758 26.2854443,5.06080823 C26.2843326,5.05286769 26.2848091,5.04270379 26.2835386,5.03285752 C26.2856031,4.99013742 26.2833798,4.94614682 26.2811564,4.90215623 L26.2813152,4.88802206 C26.2808388,4.84180812 26.278139,4.79384725 26.2733747,4.74620401 C26.2706749,4.72635266 26.2700397,4.70840704 26.2673399,4.68855569 C26.265593,4.67680369 26.2659106,4.66457525 26.2646401,4.65472898 L26.239548,4.47701969 C26.2365306,4.45526261 26.2338308,4.43557006 26.2287488,4.41413061" id="Fill-55" fill="#101770"/>
                <path d="M26.2488066,4.53674843 C26.2842215,4.78576378 26.2939089,5.03192054 26.2775514,5.27347178 C25.7099616,3.69489232 24.0959673,2.67596216 22.3700114,2.92164249 C20.641991,3.16764043 19.3764276,4.5964613 19.2719301,6.27064486 C19.1888721,6.04338659 19.129318,5.80421751 19.0939032,5.55520216 C18.8128081,3.58038973 20.1863628,1.75088919 22.1632397,1.46947643 C24.138211,1.1883813 25.9677115,2.56177719 26.2488066,4.53674843" id="Fill-57" fill-opacity="0.2" fill="#000000"/>
                <g id="Group-61" transform="translate(0.635243, 11.593189)">
                    <mask id="mask-8" fill="white">
                        <use xlink:href="#path-7"/>
                    </mask>
                    <g id="Clip-60"/>
                    <path d="M29.9352026,0.223288 L29.8524622,1.35481503 C29.7551111,2.65356984 28.8816517,3.76333978 27.6430862,4.16497232 C25.6147545,4.82467243 21.8893705,5.79135384 15.6298424,6.67116573 C9.37047308,7.55081881 5.52280476,7.64848746 3.39124605,7.57336995 C2.08995027,7.52874411 0.944447892,6.70261027 0.494854486,5.48071989 L0.110691135,4.43907978 C0.256797081,4.23119643 0.540750811,4.130828 0.807711784,4.21007459 C1.49504497,4.41367005 4.24580703,4.69587686 15.1272062,3.16652876 C25.9080781,1.65131481 28.6491526,0.460392541 29.2335764,0.132607027 C29.4033452,0.0362088649 29.6148812,0.0225511351 29.7867145,0.113232108 C29.8411866,0.141818054 29.8926413,0.178979784 29.9352026,0.223288" id="Fill-59" mask="url(#mask-8)"/>
                </g>
                <g id="Group-64" transform="translate(0.000000, 5.558378)">
                    <mask id="mask-10" fill="white">
                        <use xlink:href="#path-9"/>
                    </mask>
                    <g id="Clip-63"/>
                    <path d="M30.2086748,3.95629492 C30.2634645,4.38968962 29.90884,4.68936562 29.5146716,4.86564562 C29.5146716,4.86564562 27.2225551,5.91284411 15.5312209,7.55590076 C4.60837211,9.09112486 1.41024,8.86577232 1.41024,8.86577232 C1.08769524,8.84862076 0.740058378,8.71220227 0.554567351,8.45222897 C0.491837081,8.36440659 0.447211243,8.26197362 0.428630378,8.14365957 C0.345095892,7.62164843 0.279507027,7.11123049 0.229322811,6.61065881 C0.144517838,5.77864897 0.100050811,4.97506627 0.0990979459,4.19371708 C0.181838378,4.12368151 0.283794919,4.07508541 0.396391784,4.05936314 C0.651124324,4.02347189 0.899345622,4.1557613 1.00892508,4.39016605 C1.42469178,5.27029557 2.82238573,7.27544086 6.79329124,6.77979232 C6.85078076,6.77375751 6.90811146,6.76565816 6.96925362,6.75708238 C7.02467859,6.74930065 7.07788022,6.74183654 7.13092303,6.73230789 C10.3520827,6.23332432 11.1599533,4.65553892 11.540464,3.5505333 C11.7739159,2.87526973 12.3486522,2.37946238 13.053931,2.28036443 L16.4539117,1.8025027 C17.1590317,1.70340476 17.8482706,2.02150281 18.2587965,2.60640303 C18.929137,3.56355578 20.1650027,4.85421124 23.3988672,4.44606746 C23.4525453,4.44050908 23.5057469,4.43304497 23.5611719,4.42526324 C23.6223141,4.41668746 23.6796448,4.40858811 23.7366578,4.39858303 C27.690253,3.78049135 28.4811308,1.46788832 28.6381947,0.507082919 C28.6788503,0.251715135 28.8810164,0.0560602162 29.135749,0.020168973 C29.2384996,0.005876 29.3391856,0.0198513514 29.4308195,0.0552661622 C29.4346309,0.0689238919 29.4382836,0.0805170811 29.4422538,0.094016 C29.7816325,1.29113189 30.0390649,2.57829351 30.2086748,3.95629492" id="Fill-62" mask="url(#mask-10)"/>
                </g>
            </g>
        </g>
    </g>
</svg>