<?xml version="1.0" encoding="UTF-8"?>
<svg id="Layer_1" xmlns="http://www.w3.org/2000/svg" version="1.1" viewBox="0 0 169 169">
  <!-- Generator: Adobe Illustrator 29.3.0, SVG Export Plug-In . SVG Version: 2.1.0 Build 146)  -->
  <defs>
    <style>
      .st0, .st1 {
        fill: #fff;
      }

      .st1 {
        fill-opacity: .4;
      }
    </style>
  </defs>
  <path class="st0" d="M30.5,102.5c9.9,0,18-8.1,18-18s-8.1-18-18-18-18,8.1-18,18,8.1,18,18,18Z"/>
  <path class="st0" d="M84.5,102.5c9.9,0,18-8.1,18-18s-8.1-18-18-18-18,8.1-18,18,8.1,18,18,18Z"/>
  <path class="st0" d="M84.5,156.5c9.9,0,18-8.1,18-18s-8.1-18-18-18-18,8.1-18,18,8.1,18,18,18Z"/>
  <path class="st0" d="M138.5,102.5c9.9,0,18-8.1,18-18s-8.1-18-18-18-18,8.1-18,18,8.1,18,18,18Z"/>
  <path class="st1" d="M30.5,156.5c9.9,0,18-8.1,18-18s-8.1-18-18-18-18,8.1-18,18,8.1,18,18,18Z"/>
  <path class="st1" d="M138.5,156.5c9.9,0,18-8.1,18-18s-8.1-18-18-18-18,8.1-18,18,8.1,18,18,18Z"/>
  <path class="st1" d="M30.5,48.5c9.9,0,18-8.1,18-18s-8.1-18-18-18S12.5,20.6,12.5,30.5s8.1,18,18,18Z"/>
  <path class="st1" d="M84.5,48.5c9.9,0,18-8.1,18-18s-8.1-18-18-18-18,8.1-18,18,8.1,18,18,18Z"/>
  <path class="st1" d="M138.5,48.5c9.9,0,18-8.1,18-18s-8.1-18-18-18-18,8.1-18,18,8.1,18,18,18Z"/>
</svg>