<?xml version="1.0" encoding="utf-8"?>
<!-- Generator: Adobe Illustrator 23.1.1, SVG Export Plug-In . SVG Version: 6.00 Build 0)  -->
<svg version="1.1" id="Layer_1" xmlns="http://www.w3.org/2000/svg"
  xmlns:xlink="http://www.w3.org/1999/xlink" x="0px" y="0px"
  viewBox="0 0 92.8 92.8" style="enable-background:new 0 0 92.8 92.8;" xml:space="preserve">
<style type="text/css">
	.st0{fill:#9FA2A5;}
	.st1{fill:#E2762A;}
	.st2{fill:none;}
	.st3{fill:#3684BA;}
	.st4{fill:#39A348;}
	.st5{fill:#FFFFFF;}
</style>
<g>
	<line class="st2" x1="45.8" y1="91.4" x2="45.8" y2="1.5"/>
	<path class="st0" d="M45.8,92.9c-0.8,0-1.5-0.7-1.5-1.5V1.5C44.3,0.7,45,0,45.8,0s1.5,0.7,1.5,1.5v89.9
		C47.3,92.2,46.7,92.9,45.8,92.9z"/>
</g>
<g>
	<line class="st2" x1="89.9" y1="46.8" x2="1.5" y2="46.8"/>
	<path class="st0" d="M89.9,48.3H1.5c-0.8,0-1.5-0.7-1.5-1.5s0.7-1.5,1.5-1.5h88.4c0.8,0,1.5,0.7,1.5,1.5S90.7,48.3,89.9,48.3z"/>
</g>
<g>
	<circle class="st3" cx="20.7" cy="20.7" r="19.2"/>
</g>
<g>
	<circle class="st1" cx="70.7" cy="20.7" r="19.2"/>
</g>
<g>
	<circle class="st1" cx="20.7" cy="72.2" r="19.2"/>
</g>
<g>
	<circle class="st4" cx="71" cy="72.2" r="19.2"/>
</g>
<g>
	<circle class="st4" cx="71" cy="72.2" r="16.8"/>
</g>
<g>
	<path class="st5" d="M29.4,26.2c-2.1,2.6-5.4,4.2-8.8,4.2s-6.6-1.6-8.8-4.2H11c2.2,3,5.8,4.8,9.6,4.8s7.3-1.8,9.6-4.8H29.4z"/>
	<path class="st5" d="M20.7,32c-4.1,0-8-2-10.4-5.3c-0.2-0.3-0.3-0.7-0.1-1s0.5-0.5,0.9-0.5h0.8c0.3,0,0.6,0.1,0.8,0.4
		c2,2.4,4.9,3.8,8,3.8s6-1.4,8-3.8c0.2-0.2,0.5-0.4,0.8-0.4h0.8c0.4,0,0.7,0.2,0.9,0.5s0.1,0.7-0.1,1C28.6,30.1,24.7,32,20.7,32z"/>
</g>
<g>
	<path class="st5" d="M62.2,30c2.1-2.6,5.4-4.2,8.8-4.2s6.6,1.6,8.8,4.2h0.8c-2.2-3-5.8-4.8-9.6-4.8c-3.8,0-7.3,1.8-9.6,4.8H62.2z"
		/>
	<path class="st5" d="M80.6,31h-0.8c-0.3,0-0.6-0.1-0.8-0.4c-2-2.4-4.9-3.8-8-3.8s-6,1.4-8,3.8c-0.2,0.2-0.5,0.4-0.8,0.4h-0.8
		c-0.4,0-0.7-0.2-0.9-0.5s-0.1-0.7,0.1-1c2.4-3.3,6.3-5.3,10.4-5.3s8,2,10.4,5.3c0.2,0.3,0.3,0.7,0.1,1C81.3,30.8,80.9,31,80.6,31z"
		/>
</g>
<g>
	<path class="st5" d="M66.4,82.2L66.4,82.2c-0.4,0-0.8-0.2-1.1-0.4L59,75.4c-0.6-0.6-0.6-1.5,0-2.1s1.5-0.6,2.1,0l5.2,5.2l13.8-13.8
		c0.6-0.6,1.5-0.6,2.1,0s0.6,1.5,0,2.1L67.4,81.7C67.2,82,66.8,82.2,66.4,82.2z"/>
</g>
<g>
	<path class="st5" d="M30.3,78.9H10.6c-0.8,0-1.5-0.7-1.5-1.5s0.7-1.5,1.5-1.5h19.7c0.8,0,1.5,0.7,1.5,1.5S31.2,78.9,30.3,78.9z"/>
</g>
</svg>
