<svg width="33" height="35" viewBox="0 0 33 35" fill="none" xmlns="http://www.w3.org/2000/svg">
<path d="M16.5 0.937988C13.2366 0.937988 10.0464 1.90572 7.33299 3.71881C4.61956 5.5319 2.50471 8.10891 1.2559 11.1239C0.00708073 14.139 -0.319614 17.4566 0.317126 20.6574C0.953865 23.8581 2.52544 26.7981 4.83311 29.1056C7.14078 31.4131 10.0809 32.9845 13.2816 33.6211C16.4824 34.2576 19.8 33.9307 22.815 32.6817C25.83 31.4327 28.4068 29.3177 30.2198 26.6041C32.0327 23.8906 33.0002 20.7004 33 17.437C32.9998 13.061 31.2613 8.86445 28.1669 5.77032C25.0726 2.67618 20.8759 0.93795 16.5 0.937988ZM16.5 29.5892C14.0968 29.589 11.7476 28.8762 9.74954 27.5409C7.75144 26.2056 6.19415 24.3079 5.27458 22.0876C4.35501 19.8673 4.11446 17.4242 4.58335 15.0671C5.05224 12.7101 6.20951 10.5451 7.90883 8.84578C9.60814 7.14646 11.7732 5.98919 14.1302 5.5203C16.4872 5.05141 18.9303 5.29196 21.1506 6.21153C23.3709 7.1311 25.2687 8.68839 26.604 10.6865C27.9392 12.6846 28.652 15.0338 28.6523 17.437C28.6523 19.0328 28.338 20.6131 27.7273 22.0875C27.1167 23.5619 26.2215 24.9016 25.0931 26.03C23.9646 27.1585 22.625 28.0536 21.1505 28.6643C19.6761 29.275 18.0959 29.5893 16.5 29.5892Z" fill="#F22F46"/>
<path d="M17.1784 13.3283C17.1784 12.6498 17.3796 11.9864 17.7566 11.4222C18.1336 10.858 18.6694 10.4182 19.2964 10.1585C19.9233 9.89886 20.6131 9.83091 21.2787 9.9633C21.9442 10.0957 22.5556 10.4225 23.0354 10.9023C23.5152 11.3821 23.842 11.9935 23.9744 12.659C24.1068 13.3245 24.0388 14.0144 23.7791 14.6413C23.5194 15.2682 23.0797 15.8041 22.5155 16.1811C21.9513 16.5581 21.2879 16.7593 20.6093 16.7593C20.1588 16.7593 19.7126 16.6706 19.2963 16.4982C18.8801 16.3257 18.5018 16.073 18.1833 15.7544C17.8647 15.4358 17.6119 15.0576 17.4395 14.6413C17.2671 14.2251 17.1784 13.7789 17.1784 13.3283Z" fill="#F22F46"/>
<path d="M17.1784 21.5471C17.1782 20.8685 17.3792 20.2051 17.7561 19.6407C18.133 19.0764 18.6687 18.6364 19.2956 18.3766C19.9226 18.1168 20.6124 18.0487 21.278 18.1809C21.9437 18.3132 22.5551 18.6399 23.035 19.1197C23.515 19.5995 23.8418 20.2108 23.9743 20.8764C24.1068 21.542 24.0389 22.2319 23.7792 22.8589C23.5196 23.4858 23.0798 24.0217 22.5156 24.3988C21.9513 24.7758 21.288 24.9771 20.6093 24.9771C19.6996 24.9771 18.827 24.6158 18.1836 23.9726C17.5402 23.3293 17.1786 22.4569 17.1784 21.5471Z" fill="#F22F46"/>
<path d="M8.96019 21.5471C8.95999 20.8685 9.16104 20.2051 9.53791 19.6407C9.91479 19.0764 10.4506 18.6364 11.0775 18.3766C11.7044 18.1168 12.3943 18.0487 13.0599 18.1809C13.7255 18.3132 14.3369 18.6399 14.8169 19.1197C15.2968 19.5995 15.6237 20.2108 15.7561 20.8764C15.8886 21.542 15.8207 22.2319 15.5611 22.8589C15.3014 23.4858 14.8617 24.0217 14.2974 24.3988C13.7332 24.7758 13.0698 24.9771 12.3912 24.9771C11.4814 24.9771 10.6088 24.6158 9.96544 23.9726C9.32204 23.3293 8.96045 22.4569 8.96019 21.5471Z" fill="#F22F46"/>
<path d="M8.96019 13.3283C8.96019 12.6498 9.16141 11.9864 9.53841 11.4222C9.91541 10.858 10.4513 10.4182 11.0782 10.1585C11.7051 9.89886 12.395 9.83091 13.0605 9.9633C13.7261 10.0957 14.3374 10.4225 14.8172 10.9023C15.297 11.3821 15.6238 11.9935 15.7562 12.659C15.8886 13.3245 15.8206 14.0144 15.561 14.6413C15.3013 15.2682 14.8615 15.8041 14.2973 16.1811C13.7331 16.5581 13.0697 16.7593 12.3912 16.7593C11.9406 16.7593 11.4944 16.6706 11.0782 16.4982C10.6619 16.3257 10.2837 16.073 9.96508 15.7544C9.64648 15.4358 9.39376 15.0576 9.22134 14.6413C9.04892 14.2251 8.96018 13.7789 8.96019 13.3283Z" fill="#F22F46"/>
</svg>
